<?xml version="1.0" encoding="utf-8" standalone="no"?>
<!DOCTYPE svg PUBLIC "-//W3C//DTD SVG 1.1//EN"
  "http://www.w3.org/Graphics/SVG/1.1/DTD/svg11.dtd">
<svg xmlns:xlink="http://www.w3.org/1999/xlink" width="928.863906pt" height="352.429386pt" viewBox="0 0 928.863906 352.429386" xmlns="http://www.w3.org/2000/svg" version="1.1">
 <metadata>
  <rdf:RDF xmlns:dc="http://purl.org/dc/elements/1.1/" xmlns:cc="http://creativecommons.org/ns#" xmlns:rdf="http://www.w3.org/1999/02/22-rdf-syntax-ns#">
   <cc:Work>
    <dc:type rdf:resource="http://purl.org/dc/dcmitype/StillImage"/>
    <dc:date>2026-05-21T09:59:36.818742</dc:date>
    <dc:format>image/svg+xml</dc:format>
    <dc:creator>
     <cc:Agent>
      <dc:title>Matplotlib v3.10.9, https://matplotlib.org/</dc:title>
     </cc:Agent>
    </dc:creator>
   </cc:Work>
  </rdf:RDF>
 </metadata>
 <defs>
  <style type="text/css">*{stroke-linejoin: round; stroke-linecap: butt}</style>
 </defs>
 <g id="figure_1">
  <g id="patch_1">
   <path d="M 0 352.429386 
L 928.863906 352.429386 
L 928.863906 0 
L 0 0 
z
" style="fill: #ffffff"/>
  </g>
  <g id="axes_1">
   <g id="patch_2">
    <path d="M 42.293906 283.694535 
L 921.663906 283.694535 
L 921.663906 21.789375 
L 42.293906 21.789375 
z
" style="fill: #ffffff"/>
   </g>
   <g id="FillBetweenPolyCollection_1">
    <defs>
     <path id="m595dc8b488" d="M 120.283601 -79.927379 
L 103.463773 -79.927379 
L 101.811502 -82.005464 
L 100.00498 -84.083548 
L 98.071126 -86.161633 
L 96.046637 -88.239717 
L 93.977189 -90.317802 
L 91.915839 -92.395886 
L 89.92067 -94.473971 
L 88.051805 -96.552055 
L 86.368004 -98.63014 
L 84.923119 -100.708224 
L 83.762721 -102.786308 
L 82.921225 -104.864393 
L 82.419799 -106.942477 
L 82.26527 -109.020562 
L 82.450128 -111.098646 
L 82.953628 -113.176731 
L 83.743844 -115.254815 
L 84.780452 -117.3329 
L 86.017909 -119.410984 
L 87.408719 -121.489069 
L 88.906435 -123.567153 
L 90.468145 -125.645238 
L 92.056259 -127.723322 
L 93.639521 -129.801407 
L 95.19327 -131.879491 
L 96.699062 -133.957576 
L 98.14383 -136.03566 
L 99.51877 -138.113745 
L 100.818155 -140.191829 
L 102.038234 -142.269913 
L 103.17634 -144.347998 
L 104.23026 -146.426082 
L 105.197881 -148.504167 
L 106.077092 -150.582251 
L 106.865879 -152.660336 
L 107.562543 -154.73842 
L 108.165986 -156.816505 
L 108.676005 -158.894589 
L 109.093557 -160.972674 
L 109.420958 -163.050758 
L 109.662027 -165.128843 
L 109.82215 -167.206927 
L 109.908271 -169.285012 
L 109.928818 -171.363096 
L 109.893551 -173.441181 
L 109.813339 -175.519265 
L 109.699862 -177.59735 
L 109.565243 -179.675434 
L 109.421616 -181.753519 
L 109.280651 -183.831603 
L 109.153065 -185.909687 
L 109.048148 -187.987772 
L 108.973347 -190.065856 
L 108.933947 -192.143941 
L 108.932874 -194.222025 
L 108.970652 -196.30011 
L 109.045516 -198.378194 
L 109.153672 -200.456279 
L 109.289682 -202.534363 
L 109.446937 -204.612448 
L 109.618167 -206.690532 
L 109.795954 -208.768617 
L 109.973173 -210.846701 
L 110.143355 -212.924786 
L 110.30092 -215.00287 
L 110.441281 -217.080955 
L 110.560823 -219.159039 
L 110.656772 -221.237124 
L 110.726999 -223.315208 
L 110.769783 -225.393292 
L 110.783602 -227.471377 
L 110.766973 -229.549461 
L 110.718397 -231.627546 
L 110.636421 -233.70563 
L 110.519821 -235.783715 
L 110.367898 -237.861799 
L 110.180858 -239.939884 
L 109.960213 -242.017968 
L 109.709151 -244.096053 
L 109.432807 -246.174137 
L 109.138383 -248.252222 
L 108.835053 -250.330306 
L 108.533658 -252.408391 
L 108.246172 -254.486475 
L 107.984991 -256.56456 
L 107.762107 -258.642644 
L 107.588247 -260.720729 
L 107.472066 -262.798813 
L 107.419499 -264.876898 
L 107.433325 -266.954982 
L 107.513 -269.033066 
L 107.65477 -271.111151 
L 107.852048 -273.189235 
L 108.09599 -275.26732 
L 108.376218 -277.345404 
L 108.681598 -279.423489 
L 109.000992 -281.501573 
L 109.323922 -283.579658 
L 109.641096 -285.657742 
L 114.106279 -285.657742 
L 114.106279 -285.657742 
L 114.423452 -283.579658 
L 114.746383 -281.501573 
L 115.065777 -279.423489 
L 115.371157 -277.345404 
L 115.651385 -275.26732 
L 115.895327 -273.189235 
L 116.092605 -271.111151 
L 116.234375 -269.033066 
L 116.31405 -266.954982 
L 116.327876 -264.876898 
L 116.275309 -262.798813 
L 116.159128 -260.720729 
L 115.985268 -258.642644 
L 115.762384 -256.56456 
L 115.501203 -254.486475 
L 115.213717 -252.408391 
L 114.912322 -250.330306 
L 114.608992 -248.252222 
L 114.314568 -246.174137 
L 114.038224 -244.096053 
L 113.787162 -242.017968 
L 113.566517 -239.939884 
L 113.379477 -237.861799 
L 113.227554 -235.783715 
L 113.110953 -233.70563 
L 113.028977 -231.627546 
L 112.980402 -229.549461 
L 112.963773 -227.471377 
L 112.977591 -225.393292 
L 113.020376 -223.315208 
L 113.090603 -221.237124 
L 113.186552 -219.159039 
L 113.306094 -217.080955 
L 113.446455 -215.00287 
L 113.60402 -212.924786 
L 113.774202 -210.846701 
L 113.951421 -208.768617 
L 114.129208 -206.690532 
L 114.300438 -204.612448 
L 114.457693 -202.534363 
L 114.593703 -200.456279 
L 114.701859 -198.378194 
L 114.776723 -196.30011 
L 114.814501 -194.222025 
L 114.813428 -192.143941 
L 114.774027 -190.065856 
L 114.699227 -187.987772 
L 114.59431 -185.909687 
L 114.466724 -183.831603 
L 114.325759 -181.753519 
L 114.182132 -179.675434 
L 114.047513 -177.59735 
L 113.934036 -175.519265 
L 113.853824 -173.441181 
L 113.818556 -171.363096 
L 113.839103 -169.285012 
L 113.925225 -167.206927 
L 114.085347 -165.128843 
L 114.326417 -163.050758 
L 114.653818 -160.972674 
L 115.071369 -158.894589 
L 115.581389 -156.816505 
L 116.184832 -154.73842 
L 116.881495 -152.660336 
L 117.670283 -150.582251 
L 118.549494 -148.504167 
L 119.517115 -146.426082 
L 120.571035 -144.347998 
L 121.709141 -142.269913 
L 122.92922 -140.191829 
L 124.228605 -138.113745 
L 125.603545 -136.03566 
L 127.048313 -133.957576 
L 128.554105 -131.879491 
L 130.107854 -129.801407 
L 131.691116 -127.723322 
L 133.27923 -125.645238 
L 134.84094 -123.567153 
L 136.338656 -121.489069 
L 137.729466 -119.410984 
L 138.966923 -117.3329 
L 140.00353 -115.254815 
L 140.793747 -113.176731 
L 141.297247 -111.098646 
L 141.482105 -109.020562 
L 141.327576 -106.942477 
L 140.82615 -104.864393 
L 139.984654 -102.786308 
L 138.824255 -100.708224 
L 137.379371 -98.63014 
L 135.69557 -96.552055 
L 133.826705 -94.473971 
L 131.831535 -92.395886 
L 129.770186 -90.317802 
L 127.700738 -88.239717 
L 125.676249 -86.161633 
L 123.742395 -84.083548 
L 121.935873 -82.005464 
L 120.283601 -79.927379 
z
" style="stroke: #353535; stroke-width: 1.2"/>
    </defs>
    <g clip-path="url(#p6fd6b43df7)">
     <use xlink:href="#m595dc8b488" x="0" y="352.429386" style="fill: #32669b; stroke: #353535; stroke-width: 1.2"/>
    </g>
   </g>
   <g id="FillBetweenPolyCollection_2">
    <defs>
     <path id="mad6b5f7785" d="M 189.646638 -103.645784 
L 182.142824 -103.645784 
L 181.748369 -105.543773 
L 181.331199 -107.441762 
L 180.889382 -109.339751 
L 180.420424 -111.23774 
L 179.921411 -113.135729 
L 179.389256 -115.033719 
L 178.821022 -116.931708 
L 178.21435 -118.829697 
L 177.567926 -120.727686 
L 176.881994 -122.625675 
L 176.158836 -124.523664 
L 175.403207 -126.421653 
L 174.622641 -128.319643 
L 173.827621 -130.217632 
L 173.03154 -132.115621 
L 172.250457 -134.01361 
L 171.502627 -135.911599 
L 170.807822 -137.809588 
L 170.186471 -139.707578 
L 169.658681 -141.605567 
L 169.243186 -143.503556 
L 168.956314 -145.401545 
L 168.811038 -147.299534 
L 168.816191 -149.197523 
L 168.975895 -151.095512 
L 169.289259 -152.993502 
L 169.75036 -154.891491 
L 170.348512 -156.78948 
L 171.068796 -158.687469 
L 171.892808 -160.585458 
L 172.799571 -162.483447 
L 173.766539 -164.381436 
L 174.770621 -166.279426 
L 175.789163 -168.177415 
L 176.800818 -170.075404 
L 177.786275 -171.973393 
L 178.728789 -173.871382 
L 179.614527 -175.769371 
L 180.432706 -177.667361 
L 181.175545 -179.56535 
L 181.838066 -181.463339 
L 182.417753 -183.361328 
L 182.914128 -185.259317 
L 183.328259 -187.157306 
L 183.662257 -189.055295 
L 183.918765 -190.953285 
L 184.100499 -192.851274 
L 184.209827 -194.749263 
L 184.248425 -196.647252 
L 184.217023 -198.545241 
L 184.115222 -200.44323 
L 183.941424 -202.341219 
L 183.692837 -204.239209 
L 183.365591 -206.137198 
L 182.954928 -208.035187 
L 182.455485 -209.933176 
L 181.861647 -211.831165 
L 181.16797 -213.729154 
L 180.369651 -215.627144 
L 179.463034 -217.525133 
L 178.446136 -219.423122 
L 177.319165 -221.321111 
L 176.085004 -223.2191 
L 174.749641 -225.117089 
L 173.32252 -227.015078 
L 171.816768 -228.913068 
L 170.249295 -230.811057 
L 168.640733 -232.709046 
L 167.015197 -234.607035 
L 165.39986 -236.505024 
L 163.82435 -238.403013 
L 162.319962 -240.301002 
L 160.918722 -242.198992 
L 159.652327 -244.096981 
L 158.55101 -245.99497 
L 157.642375 -247.892959 
L 156.950277 -249.790948 
L 156.493785 -251.688937 
L 156.286314 -253.586927 
L 156.334969 -255.484916 
L 156.640145 -257.382905 
L 157.195425 -259.280894 
L 157.987768 -261.178883 
L 158.998018 -263.076872 
L 160.201666 -264.974861 
L 161.569855 -266.872851 
L 163.07056 -268.77084 
L 164.669866 -270.668829 
L 166.333284 -272.566818 
L 168.027017 -274.464807 
L 169.719129 -276.362796 
L 171.380529 -278.260785 
L 172.98576 -280.158775 
L 174.513545 -282.056764 
L 175.947088 -283.954753 
L 177.274142 -285.852742 
L 178.486865 -287.750731 
L 179.58149 -289.64872 
L 180.557865 -291.54671 
L 191.231598 -291.54671 
L 191.231598 -291.54671 
L 192.207972 -289.64872 
L 193.302597 -287.750731 
L 194.51532 -285.852742 
L 195.842375 -283.954753 
L 197.275917 -282.056764 
L 198.803702 -280.158775 
L 200.408933 -278.260785 
L 202.070333 -276.362796 
L 203.762445 -274.464807 
L 205.456179 -272.566818 
L 207.119596 -270.668829 
L 208.718902 -268.77084 
L 210.219607 -266.872851 
L 211.587797 -264.974861 
L 212.791444 -263.076872 
L 213.801694 -261.178883 
L 214.594038 -259.280894 
L 215.149317 -257.382905 
L 215.454494 -255.484916 
L 215.503149 -253.586927 
L 215.295678 -251.688937 
L 214.839185 -249.790948 
L 214.147087 -247.892959 
L 213.238453 -245.99497 
L 212.137135 -244.096981 
L 210.87074 -242.198992 
L 209.4695 -240.301002 
L 207.965112 -238.403013 
L 206.389602 -236.505024 
L 204.774266 -234.607035 
L 203.148729 -232.709046 
L 201.540167 -230.811057 
L 199.972694 -228.913068 
L 198.466942 -227.015078 
L 197.039821 -225.117089 
L 195.704459 -223.2191 
L 194.470297 -221.321111 
L 193.343326 -219.423122 
L 192.326429 -217.525133 
L 191.419812 -215.627144 
L 190.621492 -213.729154 
L 189.927815 -211.831165 
L 189.333977 -209.933176 
L 188.834534 -208.035187 
L 188.423871 -206.137198 
L 188.096625 -204.239209 
L 187.848039 -202.341219 
L 187.67424 -200.44323 
L 187.572439 -198.545241 
L 187.541037 -196.647252 
L 187.579636 -194.749263 
L 187.688963 -192.851274 
L 187.870697 -190.953285 
L 188.127206 -189.055295 
L 188.461203 -187.157306 
L 188.875334 -185.259317 
L 189.371709 -183.361328 
L 189.951396 -181.463339 
L 190.613917 -179.56535 
L 191.356757 -177.667361 
L 192.174935 -175.769371 
L 193.060673 -173.871382 
L 194.003187 -171.973393 
L 194.988644 -170.075404 
L 196.000299 -168.177415 
L 197.018841 -166.279426 
L 198.022923 -164.381436 
L 198.989891 -162.483447 
L 199.896654 -160.585458 
L 200.720666 -158.687469 
L 201.44095 -156.78948 
L 202.039102 -154.891491 
L 202.500203 -152.993502 
L 202.813567 -151.095512 
L 202.973271 -149.197523 
L 202.978424 -147.299534 
L 202.833149 -145.401545 
L 202.546277 -143.503556 
L 202.130782 -141.605567 
L 201.602991 -139.707578 
L 200.981641 -137.809588 
L 200.286835 -135.911599 
L 199.539005 -134.01361 
L 198.757923 -132.115621 
L 197.961841 -130.217632 
L 197.166821 -128.319643 
L 196.386256 -126.421653 
L 195.630626 -124.523664 
L 194.907469 -122.625675 
L 194.221536 -120.727686 
L 193.575113 -118.829697 
L 192.96844 -116.931708 
L 192.400206 -115.033719 
L 191.868051 -113.135729 
L 191.369039 -111.23774 
L 190.90008 -109.339751 
L 190.458263 -107.441762 
L 190.041094 -105.543773 
L 189.646638 -103.645784 
z
" style="stroke: #353535; stroke-width: 1.2"/>
    </defs>
    <g clip-path="url(#p6fd6b43df7)">
     <use xlink:href="#mad6b5f7785" x="0" y="352.429386" style="fill: #538fb3; stroke: #353535; stroke-width: 1.2"/>
    </g>
   </g>
   <g id="FillBetweenPolyCollection_3">
    <defs>
     <path id="m9cba7461f9" d="M 259.981081 -102.789412 
L 259.850469 -102.789412 
L 259.836895 -104.634751 
L 259.825084 -106.480091 
L 259.815211 -108.325431 
L 259.807258 -110.170771 
L 259.801297 -112.016111 
L 259.797247 -113.861451 
L 259.794209 -115.706791 
L 259.790003 -117.55213 
L 259.781542 -119.39747 
L 259.766102 -121.24281 
L 259.74286 -123.08815 
L 259.713874 -124.93349 
L 259.683876 -126.77883 
L 259.658806 -128.62417 
L 259.643595 -130.46951 
L 259.640321 -132.314849 
L 259.647867 -134.160189 
L 259.663272 -136.005529 
L 259.683625 -137.850869 
L 259.70694 -139.696209 
L 259.731532 -141.541549 
L 259.754941 -143.386889 
L 259.773829 -145.232228 
L 259.785276 -147.077568 
L 259.78862 -148.922908 
L 259.786397 -150.768248 
L 259.783534 -152.613588 
L 259.78513 -154.458928 
L 259.794159 -156.304268 
L 259.810449 -158.149608 
L 259.831316 -159.994947 
L 259.853147 -161.840287 
L 259.872871 -163.685627 
L 259.888679 -165.530967 
L 259.900061 -167.376307 
L 259.907452 -169.221647 
L 259.911772 -171.066987 
L 259.914037 -172.912326 
L 259.915097 -174.757666 
L 259.915538 -176.603006 
L 259.915701 -178.448346 
L 259.915755 -180.293686 
L 259.91577 -182.139026 
L 259.915774 -183.984366 
L 259.915775 -185.829706 
L 259.915775 -187.675045 
L 259.915775 -189.520385 
L 259.915775 -191.365725 
L 259.915775 -193.211065 
L 259.915775 -195.056405 
L 259.915775 -196.901745 
L 259.915775 -198.747085 
L 259.915775 -200.592424 
L 259.915775 -202.437764 
L 259.915773 -204.283104 
L 259.915767 -206.128444 
L 259.915739 -207.973784 
L 259.91564 -209.819124 
L 259.915321 -211.664464 
L 259.914405 -213.509804 
L 259.91209 -215.355143 
L 259.906914 -217.200483 
L 259.896728 -219.045823 
L 259.879145 -220.891163 
L 259.852718 -222.736503 
L 259.818553 -224.581843 
L 259.78143 -226.427183 
L 259.749229 -228.272522 
L 259.730221 -230.117862 
L 259.729356 -231.963202 
L 259.745817 -233.808542 
L 259.773547 -235.653882 
L 259.804379 -237.499222 
L 259.831572 -239.344562 
L 259.851514 -241.189902 
L 259.863088 -243.035241 
L 259.865925 -244.880581 
L 259.859036 -246.725921 
L 259.840332 -248.571261 
L 259.806466 -250.416601 
L 259.752358 -252.261941 
L 259.670493 -254.107281 
L 259.550747 -255.95262 
L 259.380902 -257.79796 
L 259.145738 -259.6433 
L 258.819907 -261.48864 
L 258.349383 -263.33398 
L 257.621577 -265.17932 
L 256.436723 -267.02466 
L 254.510045 -268.87 
L 251.544153 -270.715339 
L 247.393448 -272.560679 
L 242.280955 -274.406019 
L 236.943441 -276.251359 
L 232.546607 -278.096699 
L 230.307357 -279.942039 
L 230.965885 -281.787379 
L 234.411674 -283.632718 
L 239.714754 -285.478058 
L 280.116795 -285.478058 
L 280.116795 -285.478058 
L 285.419875 -283.632718 
L 288.865665 -281.787379 
L 289.524192 -279.942039 
L 287.284943 -278.096699 
L 282.888109 -276.251359 
L 277.550594 -274.406019 
L 272.438102 -272.560679 
L 268.287397 -270.715339 
L 265.321505 -268.87 
L 263.394827 -267.02466 
L 262.209973 -265.17932 
L 261.482167 -263.33398 
L 261.011643 -261.48864 
L 260.685812 -259.6433 
L 260.450648 -257.79796 
L 260.280803 -255.95262 
L 260.161057 -254.107281 
L 260.079192 -252.261941 
L 260.025084 -250.416601 
L 259.991218 -248.571261 
L 259.972514 -246.725921 
L 259.965625 -244.880581 
L 259.968462 -243.035241 
L 259.980036 -241.189902 
L 259.999978 -239.344562 
L 260.027171 -237.499222 
L 260.058003 -235.653882 
L 260.085733 -233.808542 
L 260.102194 -231.963202 
L 260.101329 -230.117862 
L 260.082321 -228.272522 
L 260.05012 -226.427183 
L 260.012997 -224.581843 
L 259.978832 -222.736503 
L 259.952405 -220.891163 
L 259.934822 -219.045823 
L 259.924636 -217.200483 
L 259.91946 -215.355143 
L 259.917144 -213.509804 
L 259.916229 -211.664464 
L 259.915909 -209.819124 
L 259.91581 -207.973784 
L 259.915783 -206.128444 
L 259.915777 -204.283104 
L 259.915775 -202.437764 
L 259.915775 -200.592424 
L 259.915775 -198.747085 
L 259.915775 -196.901745 
L 259.915775 -195.056405 
L 259.915775 -193.211065 
L 259.915775 -191.365725 
L 259.915775 -189.520385 
L 259.915775 -187.675045 
L 259.915775 -185.829706 
L 259.915776 -183.984366 
L 259.91578 -182.139026 
L 259.915795 -180.293686 
L 259.915849 -178.448346 
L 259.916012 -176.603006 
L 259.916453 -174.757666 
L 259.917513 -172.912326 
L 259.919777 -171.066987 
L 259.924098 -169.221647 
L 259.931488 -167.376307 
L 259.942871 -165.530967 
L 259.958679 -163.685627 
L 259.978402 -161.840287 
L 260.000234 -159.994947 
L 260.0211 -158.149608 
L 260.03739 -156.304268 
L 260.04642 -154.458928 
L 260.048016 -152.613588 
L 260.045153 -150.768248 
L 260.04293 -148.922908 
L 260.046274 -147.077568 
L 260.057721 -145.232228 
L 260.076609 -143.386889 
L 260.100018 -141.541549 
L 260.12461 -139.696209 
L 260.147925 -137.850869 
L 260.168278 -136.005529 
L 260.183683 -134.160189 
L 260.191229 -132.314849 
L 260.187955 -130.46951 
L 260.172744 -128.62417 
L 260.147674 -126.77883 
L 260.117676 -124.93349 
L 260.08869 -123.08815 
L 260.065448 -121.24281 
L 260.050007 -119.39747 
L 260.041547 -117.55213 
L 260.037341 -115.706791 
L 260.034303 -113.861451 
L 260.030253 -112.016111 
L 260.024292 -110.170771 
L 260.016339 -108.325431 
L 260.006465 -106.480091 
L 259.994655 -104.634751 
L 259.981081 -102.789412 
z
" style="stroke: #353535; stroke-width: 1.2"/>
    </defs>
    <g clip-path="url(#p6fd6b43df7)">
     <use xlink:href="#m9cba7461f9" x="0" y="352.429386" style="fill: #80aac5; stroke: #353535; stroke-width: 1.2"/>
    </g>
   </g>
   <g id="FillBetweenPolyCollection_4">
    <defs>
     <path id="m1ee75eba81" d="M 334.050315 -117.328472 
L 333.823322 -117.328472 
L 333.816309 -119.157921 
L 333.822134 -120.98737 
L 333.838012 -122.816819 
L 333.857372 -124.646269 
L 333.872316 -126.475718 
L 333.87657 -128.305167 
L 333.867853 -130.134616 
L 333.849023 -131.964065 
L 333.827444 -133.793515 
L 333.812286 -135.622964 
L 333.810524 -137.452413 
L 333.823707 -139.281862 
L 333.847602 -141.111312 
L 333.874902 -142.940761 
L 333.899022 -144.77021 
L 333.916528 -146.599659 
L 333.92724 -148.429108 
L 333.932843 -150.258558 
L 333.935368 -152.088007 
L 333.936353 -153.917456 
L 333.936688 -155.746905 
L 333.936786 -157.576355 
L 333.936812 -159.405804 
L 333.936817 -161.235253 
L 333.936818 -163.064702 
L 333.936819 -164.894152 
L 333.936819 -166.723601 
L 333.936819 -168.55305 
L 333.936819 -170.382499 
L 333.936819 -172.211948 
L 333.936819 -174.041398 
L 333.936819 -175.870847 
L 333.936819 -177.700296 
L 333.936818 -179.529745 
L 333.936816 -181.359195 
L 333.936807 -183.188644 
L 333.93677 -185.018093 
L 333.936637 -186.847542 
L 333.936228 -188.676992 
L 333.935139 -190.506441 
L 333.932631 -192.33589 
L 333.927665 -194.165339 
L 333.919275 -195.994788 
L 333.907337 -197.824238 
L 333.893355 -199.653687 
L 333.880527 -201.483136 
L 333.872459 -203.312585 
L 333.870828 -205.142035 
L 333.873134 -206.971484 
L 333.87169 -208.800933 
L 333.8542 -210.630382 
L 333.80578 -212.459832 
L 333.712606 -214.289281 
L 333.567514 -216.11873 
L 333.376428 -217.948179 
L 333.162237 -219.777628 
L 332.962224 -221.607078 
L 332.81814 -223.436527 
L 332.762602 -225.265976 
L 332.808019 -227.095425 
L 332.942816 -228.924875 
L 333.136062 -230.754324 
L 333.348105 -232.583773 
L 333.542818 -234.413222 
L 333.696671 -236.242672 
L 333.801565 -238.072121 
L 333.861651 -239.90157 
L 333.887336 -241.731019 
L 333.890086 -243.560468 
L 333.879671 -245.389918 
L 333.863175 -247.219367 
L 333.844559 -249.048816 
L 333.824495 -250.878265 
L 333.800976 -252.707715 
L 333.770594 -254.537164 
L 333.729407 -256.366613 
L 333.672901 -258.196062 
L 333.596027 -260.025512 
L 333.493636 -261.854961 
L 333.356962 -263.68441 
L 333.156171 -265.513859 
L 332.800109 -267.343308 
L 332.080017 -269.172758 
L 330.635807 -271.002207 
L 328.01555 -272.831656 
L 323.888512 -274.661105 
L 318.375419 -276.490555 
L 312.302771 -278.320004 
L 307.113419 -280.149453 
L 304.328401 -281.978902 
L 304.808073 -283.808351 
L 308.298341 -285.637801 
L 313.591814 -287.46725 
L 319.179424 -289.296699 
L 323.928796 -291.126148 
L 327.390021 -292.955598 
L 329.674642 -294.785047 
L 331.135303 -296.614496 
L 332.100674 -298.443945 
L 335.772963 -298.443945 
L 335.772963 -298.443945 
L 336.738334 -296.614496 
L 338.198996 -294.785047 
L 340.483616 -292.955598 
L 343.944842 -291.126148 
L 348.694213 -289.296699 
L 354.281824 -287.46725 
L 359.575296 -285.637801 
L 363.065565 -283.808351 
L 363.545236 -281.978902 
L 360.760218 -280.149453 
L 355.570866 -278.320004 
L 349.498218 -276.490555 
L 343.985125 -274.661105 
L 339.858088 -272.831656 
L 337.23783 -271.002207 
L 335.79362 -269.172758 
L 335.073528 -267.343308 
L 334.717466 -265.513859 
L 334.516675 -263.68441 
L 334.380001 -261.854961 
L 334.277611 -260.025512 
L 334.200736 -258.196062 
L 334.14423 -256.366613 
L 334.103043 -254.537164 
L 334.072661 -252.707715 
L 334.049143 -250.878265 
L 334.029078 -249.048816 
L 334.010462 -247.219367 
L 333.993966 -245.389918 
L 333.983551 -243.560468 
L 333.986302 -241.731019 
L 334.011986 -239.90157 
L 334.072072 -238.072121 
L 334.176966 -236.242672 
L 334.33082 -234.413222 
L 334.525532 -232.583773 
L 334.737575 -230.754324 
L 334.930822 -228.924875 
L 335.065619 -227.095425 
L 335.111035 -225.265976 
L 335.055497 -223.436527 
L 334.911413 -221.607078 
L 334.7114 -219.777628 
L 334.497209 -217.948179 
L 334.306123 -216.11873 
L 334.161031 -214.289281 
L 334.067858 -212.459832 
L 334.019438 -210.630382 
L 334.001948 -208.800933 
L 334.000503 -206.971484 
L 334.002809 -205.142035 
L 334.001179 -203.312585 
L 333.993111 -201.483136 
L 333.980282 -199.653687 
L 333.966301 -197.824238 
L 333.954362 -195.994788 
L 333.945972 -194.165339 
L 333.941006 -192.33589 
L 333.938498 -190.506441 
L 333.937409 -188.676992 
L 333.937001 -186.847542 
L 333.936868 -185.018093 
L 333.93683 -183.188644 
L 333.936821 -181.359195 
L 333.936819 -179.529745 
L 333.936819 -177.700296 
L 333.936819 -175.870847 
L 333.936819 -174.041398 
L 333.936819 -172.211948 
L 333.936819 -170.382499 
L 333.936819 -168.55305 
L 333.936819 -166.723601 
L 333.936819 -164.894152 
L 333.936819 -163.064702 
L 333.93682 -161.235253 
L 333.936826 -159.405804 
L 333.936851 -157.576355 
L 333.93695 -155.746905 
L 333.937284 -153.917456 
L 333.938269 -152.088007 
L 333.940795 -150.258558 
L 333.946398 -148.429108 
L 333.95711 -146.599659 
L 333.974615 -144.77021 
L 333.998735 -142.940761 
L 334.026035 -141.111312 
L 334.04993 -139.281862 
L 334.063114 -137.452413 
L 334.061351 -135.622964 
L 334.046193 -133.793515 
L 334.024614 -131.964065 
L 334.005785 -130.134616 
L 333.997068 -128.305167 
L 334.001322 -126.475718 
L 334.016266 -124.646269 
L 334.035625 -122.816819 
L 334.051504 -120.98737 
L 334.057328 -119.157921 
L 334.050315 -117.328472 
z
" style="stroke: #353535; stroke-width: 1.2"/>
    </defs>
    <g clip-path="url(#p6fd6b43df7)">
     <use xlink:href="#m1ee75eba81" x="0" y="352.429386" style="fill: #b3d5e1; stroke: #353535; stroke-width: 1.2"/>
    </g>
   </g>
   <g id="FillBetweenPolyCollection_5">
    <defs>
     <path id="mea93f485d6" d="M 408.008187 -208.648256 
L 407.907538 -208.648256 
L 407.914723 -209.576287 
L 407.930688 -210.504318 
L 407.945284 -211.432349 
L 407.953584 -212.360381 
L 407.956793 -213.288412 
L 407.957666 -214.216443 
L 407.957835 -215.144475 
L 407.95785 -216.072506 
L 407.95777 -217.000537 
L 407.957236 -217.928568 
L 407.954714 -218.8566 
L 407.946087 -219.784631 
L 407.924891 -220.712662 
L 407.888011 -221.640694 
L 407.84378 -222.568725 
L 407.809419 -223.496756 
L 407.795687 -224.424787 
L 407.799284 -225.352819 
L 407.813516 -226.28085 
L 407.837825 -227.208881 
L 407.871799 -228.136912 
L 407.907572 -229.064944 
L 407.934813 -229.992975 
L 407.949767 -230.921006 
L 407.955711 -231.849038 
L 407.957397 -232.777069 
L 407.957527 -233.7051 
L 407.956449 -234.633131 
L 407.952521 -235.561163 
L 407.942881 -236.489194 
L 407.926551 -237.417225 
L 407.908073 -238.345257 
L 407.894698 -239.273288 
L 407.888265 -240.201319 
L 407.884651 -241.12935 
L 407.881354 -242.057382 
L 407.879321 -242.985413 
L 407.879329 -243.913444 
L 407.881265 -244.841476 
L 407.884321 -245.769507 
L 407.888523 -246.697538 
L 407.897319 -247.625569 
L 407.913277 -248.553601 
L 407.932095 -249.481632 
L 407.946611 -250.409663 
L 407.954212 -251.337695 
L 407.956988 -252.265726 
L 407.957708 -253.193757 
L 407.957843 -254.121788 
L 407.957861 -255.04982 
L 407.957862 -255.977851 
L 407.957862 -256.905882 
L 407.957862 -257.833914 
L 407.957862 -258.761945 
L 407.957861 -259.689976 
L 407.957849 -260.618007 
L 407.957748 -261.546039 
L 407.957169 -262.47407 
L 407.954723 -263.402101 
L 407.947158 -264.330132 
L 407.929867 -265.258164 
L 407.900003 -266.186195 
L 407.858974 -267.114226 
L 407.809731 -268.042258 
L 407.753079 -268.970289 
L 407.693155 -269.89832 
L 407.648137 -270.826351 
L 407.64328 -271.754383 
L 407.683415 -272.682414 
L 407.745453 -273.610445 
L 407.805791 -274.538477 
L 407.857236 -275.466508 
L 407.895912 -276.394539 
L 407.908949 -277.32257 
L 407.872932 -278.250602 
L 407.743295 -279.178633 
L 407.429188 -280.106664 
L 406.789573 -281.034696 
L 405.719315 -281.962727 
L 404.31209 -282.890758 
L 402.89815 -283.818789 
L 401.80192 -284.746821 
L 401.044787 -285.674852 
L 400.328806 -286.602883 
L 399.244306 -287.530915 
L 397.443792 -288.458946 
L 394.73746 -289.386977 
L 391.151603 -290.315008 
L 386.952322 -291.24304 
L 382.720586 -292.171071 
L 379.447702 -293.099102 
L 378.349445 -294.027133 
L 380.267689 -294.955165 
L 385.03783 -295.883196 
L 391.398857 -296.811227 
L 397.628805 -297.739259 
L 402.436676 -298.66729 
L 405.434195 -299.595321 
L 406.964247 -300.523352 
L 408.951478 -300.523352 
L 408.951478 -300.523352 
L 410.48153 -299.595321 
L 413.479049 -298.66729 
L 418.28692 -297.739259 
L 424.516868 -296.811227 
L 430.877895 -295.883196 
L 435.648036 -294.955165 
L 437.56628 -294.027133 
L 436.468023 -293.099102 
L 433.195139 -292.171071 
L 428.963403 -291.24304 
L 424.764122 -290.315008 
L 421.178264 -289.386977 
L 418.471933 -288.458946 
L 416.671419 -287.530915 
L 415.586919 -286.602883 
L 414.870938 -285.674852 
L 414.113805 -284.746821 
L 413.017575 -283.818789 
L 411.603635 -282.890758 
L 410.19641 -281.962727 
L 409.126152 -281.034696 
L 408.486537 -280.106664 
L 408.17243 -279.178633 
L 408.042793 -278.250602 
L 408.006776 -277.32257 
L 408.019813 -276.394539 
L 408.058489 -275.466508 
L 408.109934 -274.538477 
L 408.170271 -273.610445 
L 408.23231 -272.682414 
L 408.272445 -271.754383 
L 408.267588 -270.826351 
L 408.22257 -269.89832 
L 408.162645 -268.970289 
L 408.105994 -268.042258 
L 408.056751 -267.114226 
L 408.015722 -266.186195 
L 407.985858 -265.258164 
L 407.968567 -264.330132 
L 407.961002 -263.402101 
L 407.958556 -262.47407 
L 407.957977 -261.546039 
L 407.957876 -260.618007 
L 407.957864 -259.689976 
L 407.957863 -258.761945 
L 407.957862 -257.833914 
L 407.957862 -256.905882 
L 407.957863 -255.977851 
L 407.957864 -255.04982 
L 407.957882 -254.121788 
L 407.958017 -253.193757 
L 407.958737 -252.265726 
L 407.961513 -251.337695 
L 407.969114 -250.409663 
L 407.98363 -249.481632 
L 408.002448 -248.553601 
L 408.018406 -247.625569 
L 408.027202 -246.697538 
L 408.031404 -245.769507 
L 408.03446 -244.841476 
L 408.036396 -243.913444 
L 408.036404 -242.985413 
L 408.034371 -242.057382 
L 408.031074 -241.12935 
L 408.02746 -240.201319 
L 408.021027 -239.273288 
L 408.007652 -238.345257 
L 407.989174 -237.417225 
L 407.972844 -236.489194 
L 407.963204 -235.561163 
L 407.959276 -234.633131 
L 407.958198 -233.7051 
L 407.958328 -232.777069 
L 407.960014 -231.849038 
L 407.965958 -230.921006 
L 407.980912 -229.992975 
L 408.008153 -229.064944 
L 408.043926 -228.136912 
L 408.0779 -227.208881 
L 408.102209 -226.28085 
L 408.116441 -225.352819 
L 408.120037 -224.424787 
L 408.106306 -223.496756 
L 408.071945 -222.568725 
L 408.027714 -221.640694 
L 407.990834 -220.712662 
L 407.969638 -219.784631 
L 407.961011 -218.8566 
L 407.958489 -217.928568 
L 407.957955 -217.000537 
L 407.957875 -216.072506 
L 407.95789 -215.144475 
L 407.958059 -214.216443 
L 407.958932 -213.288412 
L 407.962141 -212.360381 
L 407.970441 -211.432349 
L 407.985037 -210.504318 
L 408.001002 -209.576287 
L 408.008187 -208.648256 
z
" style="stroke: #353535; stroke-width: 1.2"/>
    </defs>
    <g clip-path="url(#p6fd6b43df7)">
     <use xlink:href="#mea93f485d6" x="0" y="352.429386" style="fill: #549b37; stroke: #353535; stroke-width: 1.2"/>
    </g>
   </g>
   <g id="FillBetweenPolyCollection_6">
    <defs>
     <path id="m0c52521c6c" d="M 482.273249 -224.278166 
L 481.684564 -224.278166 
L 481.65818 -225.052576 
L 481.656533 -225.826985 
L 481.676637 -226.601395 
L 481.710825 -227.375805 
L 481.750918 -228.150214 
L 481.791389 -228.924624 
L 481.829858 -229.699034 
L 481.865545 -230.473443 
L 481.897623 -231.247853 
L 481.924768 -232.022263 
L 481.94581 -232.796672 
L 481.960494 -233.571082 
L 481.969636 -234.345492 
L 481.974698 -235.119901 
L 481.977187 -235.894311 
L 481.978275 -236.668721 
L 481.978698 -237.44313 
L 481.978845 -238.21754 
L 481.97889 -238.99195 
L 481.978902 -239.766359 
L 481.978905 -240.540769 
L 481.978906 -241.315179 
L 481.978906 -242.089588 
L 481.978906 -242.863998 
L 481.978906 -243.638408 
L 481.978906 -244.412817 
L 481.978906 -245.187227 
L 481.978906 -245.961637 
L 481.978906 -246.736046 
L 481.978906 -247.510456 
L 481.978906 -248.284866 
L 481.978906 -249.059275 
L 481.978906 -249.833685 
L 481.978906 -250.608095 
L 481.978906 -251.382504 
L 481.978906 -252.156914 
L 481.978906 -252.931324 
L 481.978906 -253.705733 
L 481.978906 -254.480143 
L 481.978906 -255.254553 
L 481.978906 -256.028962 
L 481.978906 -256.803372 
L 481.978906 -257.577782 
L 481.978906 -258.352191 
L 481.978906 -259.126601 
L 481.978906 -259.901011 
L 481.978906 -260.67542 
L 481.978906 -261.44983 
L 481.978906 -262.22424 
L 481.978906 -262.998649 
L 481.978906 -263.773059 
L 481.978906 -264.547469 
L 481.978906 -265.321878 
L 481.978906 -266.096288 
L 481.978906 -266.870698 
L 481.978906 -267.645107 
L 481.978906 -268.419517 
L 481.978906 -269.193927 
L 481.978906 -269.968336 
L 481.978906 -270.742746 
L 481.978906 -271.517156 
L 481.978906 -272.291565 
L 481.978906 -273.065975 
L 481.978904 -273.840385 
L 481.978896 -274.614794 
L 481.978866 -275.389204 
L 481.978764 -276.163614 
L 481.97846 -276.938023 
L 481.977651 -277.712433 
L 481.975735 -278.486843 
L 481.97171 -279.261252 
L 481.964231 -280.035662 
L 481.951954 -280.810072 
L 481.934175 -281.584481 
L 481.911378 -282.358891 
L 481.885032 -283.133301 
L 481.856053 -283.90771 
L 481.82202 -284.68212 
L 481.774054 -285.45653 
L 481.694371 -286.230939 
L 481.554576 -287.005349 
L 481.313255 -287.779759 
L 480.910702 -288.554168 
L 480.260077 -289.328578 
L 479.238484 -290.102988 
L 477.687404 -290.877397 
L 475.436323 -291.651807 
L 472.360455 -292.426217 
L 468.468816 -293.200626 
L 463.994392 -293.975036 
L 459.436567 -294.749446 
L 455.506483 -295.523855 
L 452.961015 -296.298265 
L 452.370489 -297.072675 
L 453.915286 -297.847084 
L 457.309062 -298.621494 
L 461.890519 -299.395904 
L 466.841965 -300.170313 
L 471.433527 -300.944723 
L 492.524286 -300.944723 
L 492.524286 -300.944723 
L 497.115847 -300.170313 
L 502.067294 -299.395904 
L 506.64875 -298.621494 
L 510.042526 -297.847084 
L 511.587324 -297.072675 
L 510.996797 -296.298265 
L 508.45133 -295.523855 
L 504.521246 -294.749446 
L 499.96342 -293.975036 
L 495.488997 -293.200626 
L 491.597357 -292.426217 
L 488.521489 -291.651807 
L 486.270408 -290.877397 
L 484.719329 -290.102988 
L 483.697735 -289.328578 
L 483.047111 -288.554168 
L 482.644557 -287.779759 
L 482.403236 -287.005349 
L 482.263442 -286.230939 
L 482.183758 -285.45653 
L 482.135793 -284.68212 
L 482.10176 -283.90771 
L 482.07278 -283.133301 
L 482.046434 -282.358891 
L 482.023638 -281.584481 
L 482.005859 -280.810072 
L 481.993582 -280.035662 
L 481.986102 -279.261252 
L 481.982078 -278.486843 
L 481.980162 -277.712433 
L 481.979352 -276.938023 
L 481.979048 -276.163614 
L 481.978947 -275.389204 
L 481.978917 -274.614794 
L 481.978909 -273.840385 
L 481.978907 -273.065975 
L 481.978906 -272.291565 
L 481.978906 -271.517156 
L 481.978906 -270.742746 
L 481.978906 -269.968336 
L 481.978906 -269.193927 
L 481.978906 -268.419517 
L 481.978906 -267.645107 
L 481.978906 -266.870698 
L 481.978906 -266.096288 
L 481.978906 -265.321878 
L 481.978906 -264.547469 
L 481.978906 -263.773059 
L 481.978906 -262.998649 
L 481.978906 -262.22424 
L 481.978906 -261.44983 
L 481.978906 -260.67542 
L 481.978906 -259.901011 
L 481.978906 -259.126601 
L 481.978906 -258.352191 
L 481.978906 -257.577782 
L 481.978906 -256.803372 
L 481.978906 -256.028962 
L 481.978906 -255.254553 
L 481.978906 -254.480143 
L 481.978906 -253.705733 
L 481.978906 -252.931324 
L 481.978906 -252.156914 
L 481.978906 -251.382504 
L 481.978906 -250.608095 
L 481.978906 -249.833685 
L 481.978906 -249.059275 
L 481.978906 -248.284866 
L 481.978906 -247.510456 
L 481.978906 -246.736046 
L 481.978906 -245.961637 
L 481.978906 -245.187227 
L 481.978906 -244.412817 
L 481.978906 -243.638408 
L 481.978906 -242.863998 
L 481.978906 -242.089588 
L 481.978906 -241.315179 
L 481.978907 -240.540769 
L 481.97891 -239.766359 
L 481.978923 -238.99195 
L 481.978968 -238.21754 
L 481.979114 -237.44313 
L 481.979537 -236.668721 
L 481.980626 -235.894311 
L 481.983115 -235.119901 
L 481.988176 -234.345492 
L 481.997319 -233.571082 
L 482.012003 -232.796672 
L 482.033045 -232.022263 
L 482.06019 -231.247853 
L 482.092267 -230.473443 
L 482.127955 -229.699034 
L 482.166423 -228.924624 
L 482.206895 -228.150214 
L 482.246987 -227.375805 
L 482.281175 -226.601395 
L 482.301279 -225.826985 
L 482.299633 -225.052576 
L 482.273249 -224.278166 
z
" style="stroke: #353535; stroke-width: 1.2"/>
    </defs>
    <g clip-path="url(#p6fd6b43df7)">
     <use xlink:href="#m0c52521c6c" x="0" y="352.429386" style="fill: #753e88; stroke: #353535; stroke-width: 1.2"/>
    </g>
   </g>
   <g id="FillBetweenPolyCollection_7">
    <defs>
     <path id="m7a27f12d5c" d="M 556.019201 -196.498732 
L 555.980699 -196.498732 
L 555.98222 -197.558648 
L 555.982336 -198.618565 
L 555.980632 -199.678482 
L 555.98628 -200.738399 
L 555.994813 -201.798316 
L 555.998957 -202.858233 
L 555.999852 -203.91815 
L 555.999945 -204.978067 
L 555.99995 -206.037984 
L 555.99995 -207.097901 
L 555.99995 -208.157818 
L 555.99995 -209.217735 
L 555.99995 -210.277652 
L 555.99995 -211.337569 
L 555.999936 -212.397486 
L 555.999724 -213.457403 
L 555.998113 -214.51732 
L 555.992254 -215.577237 
L 555.982646 -216.637154 
L 555.974648 -217.697071 
L 555.962159 -218.756988 
L 555.94081 -219.816905 
L 555.932528 -220.876822 
L 555.943974 -221.936739 
L 555.952964 -222.996656 
L 555.958691 -224.056573 
L 555.973015 -225.11649 
L 555.982892 -226.176407 
L 555.979496 -227.236324 
L 555.972842 -228.296241 
L 555.965127 -229.356158 
L 555.955982 -230.416074 
L 555.953356 -231.475991 
L 555.958485 -232.535908 
L 555.967941 -233.595825 
L 555.978956 -234.655742 
L 555.980305 -235.715659 
L 555.961645 -236.775576 
L 555.937104 -237.835493 
L 555.935888 -238.89541 
L 555.95496 -239.955327 
L 555.962662 -241.015244 
L 555.961564 -242.075161 
L 555.973487 -243.135078 
L 555.989972 -244.194995 
L 555.996538 -245.254912 
L 555.992778 -246.314829 
L 555.982502 -247.374746 
L 555.973739 -248.434663 
L 555.972522 -249.49458 
L 555.979364 -250.554497 
L 555.989894 -251.614414 
L 555.994412 -252.674331 
L 555.986864 -253.734248 
L 555.971067 -254.794165 
L 555.964815 -255.854082 
L 555.9769 -256.913999 
L 555.991439 -257.973916 
L 555.995581 -259.033833 
L 555.98988 -260.09375 
L 555.982175 -261.153667 
L 555.982657 -262.213584 
L 555.98652 -263.2735 
L 555.982853 -264.333417 
L 555.975429 -265.393334 
L 555.963995 -266.453251 
L 555.935304 -267.513168 
L 555.877218 -268.573085 
L 555.787117 -269.633002 
L 555.731892 -270.692919 
L 555.772529 -271.752836 
L 555.84121 -272.812753 
L 555.883949 -273.87267 
L 555.917954 -274.932587 
L 555.951804 -275.992504 
L 555.978969 -277.052421 
L 555.993988 -278.112338 
L 555.99896 -279.172255 
L 555.99986 -280.232172 
L 555.999946 -281.292089 
L 555.999943 -282.352006 
L 555.999768 -283.411923 
L 555.997281 -284.47184 
L 555.977559 -285.531757 
L 555.883323 -286.591674 
L 555.570618 -287.651591 
L 554.729722 -288.711508 
L 552.869834 -289.771425 
L 549.650993 -290.831342 
L 544.985081 -291.891259 
L 538.801204 -292.951176 
L 531.941668 -294.011093 
L 526.844938 -295.07101 
L 526.391533 -296.130926 
L 531.635564 -297.190843 
L 540.135677 -298.25076 
L 547.950869 -299.310677 
L 552.839499 -300.370594 
L 555.018691 -301.430511 
L 556.981209 -301.430511 
L 556.981209 -301.430511 
L 559.160401 -300.370594 
L 564.049031 -299.310677 
L 571.864223 -298.25076 
L 580.364336 -297.190843 
L 585.608368 -296.130926 
L 585.154962 -295.07101 
L 580.058232 -294.011093 
L 573.198696 -292.951176 
L 567.014819 -291.891259 
L 562.348907 -290.831342 
L 559.130066 -289.771425 
L 557.270178 -288.711508 
L 556.429282 -287.651591 
L 556.116577 -286.591674 
L 556.022341 -285.531757 
L 556.002619 -284.47184 
L 556.000132 -283.411923 
L 555.999957 -282.352006 
L 555.999954 -281.292089 
L 556.00004 -280.232172 
L 556.00094 -279.172255 
L 556.005912 -278.112338 
L 556.020932 -277.052421 
L 556.048096 -275.992504 
L 556.081946 -274.932587 
L 556.115951 -273.87267 
L 556.15869 -272.812753 
L 556.227371 -271.752836 
L 556.268008 -270.692919 
L 556.212783 -269.633002 
L 556.122683 -268.573085 
L 556.064596 -267.513168 
L 556.035905 -266.453251 
L 556.024471 -265.393334 
L 556.017047 -264.333417 
L 556.01338 -263.2735 
L 556.017243 -262.213584 
L 556.017725 -261.153667 
L 556.01002 -260.09375 
L 556.004319 -259.033833 
L 556.008461 -257.973916 
L 556.023 -256.913999 
L 556.035085 -255.854082 
L 556.028833 -254.794165 
L 556.013036 -253.734248 
L 556.005488 -252.674331 
L 556.010006 -251.614414 
L 556.020536 -250.554497 
L 556.027378 -249.49458 
L 556.026161 -248.434663 
L 556.017398 -247.374746 
L 556.007122 -246.314829 
L 556.003362 -245.254912 
L 556.009928 -244.194995 
L 556.026413 -243.135078 
L 556.038336 -242.075161 
L 556.037238 -241.015244 
L 556.04494 -239.955327 
L 556.064012 -238.89541 
L 556.062796 -237.835493 
L 556.038255 -236.775576 
L 556.019595 -235.715659 
L 556.020944 -234.655742 
L 556.031959 -233.595825 
L 556.041415 -232.535908 
L 556.046544 -231.475991 
L 556.043918 -230.416074 
L 556.034773 -229.356158 
L 556.027058 -228.296241 
L 556.020404 -227.236324 
L 556.017008 -226.176407 
L 556.026885 -225.11649 
L 556.041209 -224.056573 
L 556.046936 -222.996656 
L 556.055926 -221.936739 
L 556.067372 -220.876822 
L 556.05909 -219.816905 
L 556.037741 -218.756988 
L 556.025252 -217.697071 
L 556.017254 -216.637154 
L 556.007646 -215.577237 
L 556.001787 -214.51732 
L 556.000177 -213.457403 
L 555.999964 -212.397486 
L 555.99995 -211.337569 
L 555.99995 -210.277652 
L 555.99995 -209.217735 
L 555.99995 -208.157818 
L 555.99995 -207.097901 
L 555.99995 -206.037984 
L 555.999955 -204.978067 
L 556.000048 -203.91815 
L 556.000943 -202.858233 
L 556.005087 -201.798316 
L 556.01362 -200.738399 
L 556.019268 -199.678482 
L 556.017564 -198.618565 
L 556.01768 -197.558648 
L 556.019201 -196.498732 
z
" style="stroke: #353535; stroke-width: 1.2"/>
    </defs>
    <g clip-path="url(#p6fd6b43df7)">
     <use xlink:href="#m7a27f12d5c" x="0" y="352.429386" style="fill: #298647; stroke: #353535; stroke-width: 1.2"/>
    </g>
   </g>
   <g id="FillBetweenPolyCollection_8">
    <defs>
     <path id="me949400a52" d="M 630.25691 -249.165914 
L 629.785077 -249.165914 
L 629.79296 -249.686656 
L 629.815059 -250.207398 
L 629.847067 -250.728141 
L 629.883216 -251.248883 
L 629.91773 -251.769625 
L 629.945926 -252.290368 
L 629.96468 -252.81111 
L 629.972311 -253.331852 
L 629.968236 -253.852595 
L 629.952759 -254.373337 
L 629.927189 -254.89408 
L 629.894178 -255.414822 
L 629.85795 -255.935564 
L 629.824037 -256.456307 
L 629.798358 -256.977049 
L 629.785819 -257.497791 
L 629.788953 -258.018534 
L 629.807171 -258.539276 
L 629.836986 -259.060018 
L 629.873115 -259.580761 
L 629.910008 -260.101503 
L 629.943198 -260.622246 
L 629.970048 -261.142988 
L 629.989772 -261.66373 
L 630.002948 -262.184473 
L 630.010795 -262.705215 
L 630.014523 -263.225957 
L 630.014842 -263.7467 
L 630.011685 -264.267442 
L 630.004085 -264.788184 
L 629.990237 -265.308927 
L 629.96778 -265.829669 
L 629.934389 -266.350412 
L 629.888677 -266.871154 
L 629.831239 -267.391896 
L 629.765497 -267.912639 
L 629.697905 -268.433381 
L 629.637182 -268.954123 
L 629.59258 -269.474866 
L 629.57161 -269.995608 
L 629.57799 -270.51635 
L 629.610577 -271.037093 
L 629.663698 -271.557835 
L 629.72875 -272.078578 
L 629.796459 -272.59932 
L 629.858977 -273.120062 
L 629.911187 -273.640805 
L 629.950975 -274.161547 
L 629.978635 -274.682289 
L 629.995795 -275.203032 
L 630.004297 -275.723774 
L 630.005295 -276.244517 
L 629.99871 -276.765259 
L 629.983088 -277.286001 
L 629.955897 -277.806744 
L 629.914297 -278.327486 
L 629.856304 -278.848228 
L 629.782108 -279.368971 
L 629.695059 -279.889713 
L 629.601766 -280.410455 
L 629.510959 -280.931198 
L 629.431226 -281.45194 
L 629.368251 -281.972683 
L 629.322474 -282.493425 
L 629.287959 -283.014167 
L 629.252808 -283.53491 
L 629.200933 -284.055652 
L 629.114698 -284.576394 
L 628.977852 -285.097137 
L 628.778168 -285.617879 
L 628.509175 -286.138621 
L 628.170283 -286.659364 
L 627.764736 -287.180106 
L 627.295297 -287.700849 
L 626.758288 -288.221591 
L 626.137397 -288.742333 
L 625.399138 -289.263076 
L 624.491956 -289.783818 
L 623.350659 -290.30456 
L 621.90695 -290.825303 
L 620.105386 -291.346045 
L 617.922101 -291.866787 
L 615.381973 -292.38753 
L 612.56945 -292.908272 
L 609.629551 -293.429015 
L 606.75805 -293.949757 
L 604.182286 -294.470499 
L 602.13536 -294.991242 
L 600.826746 -295.511984 
L 600.412576 -296.032726 
L 600.969686 -296.553469 
L 602.4787 -297.074211 
L 604.821402 -297.594953 
L 607.79528 -298.115696 
L 611.14371 -298.636438 
L 614.595438 -299.157181 
L 617.90411 -299.677923 
L 620.878972 -300.198665 
L 623.401097 -300.719408 
L 636.640891 -300.719408 
L 636.640891 -300.719408 
L 639.163016 -300.198665 
L 642.137878 -299.677923 
L 645.446549 -299.157181 
L 648.898277 -298.636438 
L 652.246708 -298.115696 
L 655.220586 -297.594953 
L 657.563288 -297.074211 
L 659.072302 -296.553469 
L 659.629411 -296.032726 
L 659.215241 -295.511984 
L 657.906628 -294.991242 
L 655.859701 -294.470499 
L 653.283938 -293.949757 
L 650.412437 -293.429015 
L 647.472538 -292.908272 
L 644.660014 -292.38753 
L 642.119887 -291.866787 
L 639.936602 -291.346045 
L 638.135038 -290.825303 
L 636.691329 -290.30456 
L 635.550031 -289.783818 
L 634.64285 -289.263076 
L 633.90459 -288.742333 
L 633.2837 -288.221591 
L 632.746691 -287.700849 
L 632.277251 -287.180106 
L 631.871705 -286.659364 
L 631.532813 -286.138621 
L 631.26382 -285.617879 
L 631.064136 -285.097137 
L 630.927289 -284.576394 
L 630.841054 -284.055652 
L 630.789179 -283.53491 
L 630.754029 -283.014167 
L 630.719514 -282.493425 
L 630.673736 -281.972683 
L 630.610761 -281.45194 
L 630.531028 -280.931198 
L 630.440222 -280.410455 
L 630.346928 -279.889713 
L 630.259879 -279.368971 
L 630.185683 -278.848228 
L 630.12769 -278.327486 
L 630.08609 -277.806744 
L 630.0589 -277.286001 
L 630.043278 -276.765259 
L 630.036693 -276.244517 
L 630.037691 -275.723774 
L 630.046193 -275.203032 
L 630.063353 -274.682289 
L 630.091012 -274.161547 
L 630.130801 -273.640805 
L 630.183011 -273.120062 
L 630.245528 -272.59932 
L 630.313237 -272.078578 
L 630.37829 -271.557835 
L 630.43141 -271.037093 
L 630.463998 -270.51635 
L 630.470378 -269.995608 
L 630.449408 -269.474866 
L 630.404806 -268.954123 
L 630.344083 -268.433381 
L 630.27649 -267.912639 
L 630.210748 -267.391896 
L 630.153311 -266.871154 
L 630.107599 -266.350412 
L 630.074208 -265.829669 
L 630.051751 -265.308927 
L 630.037903 -264.788184 
L 630.030303 -264.267442 
L 630.027145 -263.7467 
L 630.027464 -263.225957 
L 630.031192 -262.705215 
L 630.03904 -262.184473 
L 630.052215 -261.66373 
L 630.07194 -261.142988 
L 630.098789 -260.622246 
L 630.13198 -260.101503 
L 630.168873 -259.580761 
L 630.205001 -259.060018 
L 630.234816 -258.539276 
L 630.253035 -258.018534 
L 630.256169 -257.497791 
L 630.24363 -256.977049 
L 630.21795 -256.456307 
L 630.184038 -255.935564 
L 630.14781 -255.414822 
L 630.114799 -254.89408 
L 630.089228 -254.373337 
L 630.073751 -253.852595 
L 630.069676 -253.331852 
L 630.077308 -252.81111 
L 630.096062 -252.290368 
L 630.124258 -251.769625 
L 630.158771 -251.248883 
L 630.19492 -250.728141 
L 630.226928 -250.207398 
L 630.249028 -249.686656 
L 630.25691 -249.165914 
z
" style="stroke: #353535; stroke-width: 1.2"/>
    </defs>
    <g clip-path="url(#p6fd6b43df7)">
     <use xlink:href="#me949400a52" x="0" y="352.429386" style="fill: #c1443d; stroke: #353535; stroke-width: 1.2"/>
    </g>
   </g>
   <g id="FillBetweenPolyCollection_9">
    <defs>
     <path id="m235bc83e0d" d="M 704.271537 -224.279447 
L 703.812538 -224.279447 
L 703.774028 -225.081139 
L 703.745938 -225.88283 
L 703.730978 -226.684522 
L 703.730782 -227.486213 
L 703.745661 -228.287905 
L 703.77377 -229.089596 
L 703.810567 -229.891288 
L 703.849647 -230.692979 
L 703.884933 -231.494671 
L 703.91295 -232.296362 
L 703.933598 -233.098054 
L 703.948954 -233.899745 
L 703.96112 -234.701437 
L 703.970694 -235.503128 
L 703.976837 -236.30482 
L 703.97862 -237.106511 
L 703.976491 -237.908203 
L 703.972754 -238.709894 
L 703.97072 -239.511586 
L 703.973128 -240.313277 
L 703.980846 -241.114969 
L 703.99263 -241.91666 
L 704.005947 -242.718352 
L 704.018243 -243.520043 
L 704.027893 -244.321735 
L 704.03446 -245.123426 
L 704.03838 -245.925118 
L 704.040447 -246.726809 
L 704.041414 -247.528501 
L 704.041818 -248.330192 
L 704.041968 -249.131884 
L 704.042018 -249.933575 
L 704.042032 -250.735267 
L 704.042036 -251.536958 
L 704.042037 -252.33865 
L 704.042038 -253.140341 
L 704.042038 -253.942033 
L 704.042038 -254.743724 
L 704.042038 -255.545416 
L 704.042038 -256.347107 
L 704.042037 -257.148799 
L 704.042037 -257.95049 
L 704.042033 -258.752182 
L 704.04202 -259.553873 
L 704.041974 -260.355565 
L 704.041835 -261.157256 
L 704.041454 -261.958948 
L 704.040515 -262.760639 
L 704.038442 -263.562331 
L 704.034343 -264.364022 
L 704.02707 -265.165714 
L 704.015491 -265.967405 
L 703.99893 -266.769097 
L 703.977619 -267.570788 
L 703.952921 -268.37248 
L 703.927179 -269.174171 
L 703.903248 -269.975863 
L 703.883875 -270.777554 
L 703.871061 -271.579246 
L 703.865422 -272.380937 
L 703.86578 -273.182629 
L 703.869372 -273.98432 
L 703.873024 -274.786012 
L 703.874948 -275.587703 
L 703.876059 -276.389395 
L 703.879711 -277.191086 
L 703.889746 -277.992778 
L 703.908043 -278.79447 
L 703.933226 -279.596161 
L 703.961299 -280.397853 
L 703.98762 -281.199544 
L 704.008831 -282.001236 
L 704.023711 -282.802927 
L 704.032831 -283.604619 
L 704.037556 -284.40631 
L 704.03894 -285.208002 
L 704.036599 -286.009693 
L 704.027022 -286.811385 
L 704.000372 -287.613076 
L 703.934697 -288.414768 
L 703.787008 -289.216459 
L 703.482172 -290.018151 
L 702.903229 -290.819842 
L 701.889995 -291.621534 
L 700.255184 -292.423225 
L 697.826228 -293.224917 
L 694.513845 -294.026608 
L 690.394171 -294.8283 
L 685.773698 -295.629991 
L 681.195933 -296.431683 
L 677.358819 -297.233374 
L 674.947433 -298.035066 
L 674.43362 -298.836757 
L 675.923709 -299.638449 
L 679.122903 -300.44014 
L 683.432523 -301.241832 
L 688.134726 -302.043523 
L 692.585453 -302.845215 
L 696.345999 -303.646906 
L 711.738076 -303.646906 
L 711.738076 -303.646906 
L 715.498622 -302.845215 
L 719.949349 -302.043523 
L 724.651552 -301.241832 
L 728.961172 -300.44014 
L 732.160366 -299.638449 
L 733.650455 -298.836757 
L 733.136642 -298.035066 
L 730.725256 -297.233374 
L 726.888142 -296.431683 
L 722.310377 -295.629991 
L 717.689904 -294.8283 
L 713.57023 -294.026608 
L 710.257847 -293.224917 
L 707.828891 -292.423225 
L 706.19408 -291.621534 
L 705.180846 -290.819842 
L 704.601903 -290.018151 
L 704.297067 -289.216459 
L 704.149378 -288.414768 
L 704.083703 -287.613076 
L 704.057053 -286.811385 
L 704.047476 -286.009693 
L 704.045135 -285.208002 
L 704.046519 -284.40631 
L 704.051244 -283.604619 
L 704.060364 -282.802927 
L 704.075244 -282.001236 
L 704.096455 -281.199544 
L 704.122776 -280.397853 
L 704.15085 -279.596161 
L 704.176032 -278.79447 
L 704.194329 -277.992778 
L 704.204364 -277.191086 
L 704.208016 -276.389395 
L 704.209127 -275.587703 
L 704.211051 -274.786012 
L 704.214703 -273.98432 
L 704.218295 -273.182629 
L 704.218653 -272.380937 
L 704.213015 -271.579246 
L 704.2002 -270.777554 
L 704.180828 -269.975863 
L 704.156896 -269.174171 
L 704.131154 -268.37248 
L 704.106456 -267.570788 
L 704.085145 -266.769097 
L 704.068584 -265.967405 
L 704.057005 -265.165714 
L 704.049732 -264.364022 
L 704.045633 -263.562331 
L 704.043561 -262.760639 
L 704.042621 -261.958948 
L 704.04224 -261.157256 
L 704.042101 -260.355565 
L 704.042055 -259.553873 
L 704.042042 -258.752182 
L 704.042039 -257.95049 
L 704.042038 -257.148799 
L 704.042038 -256.347107 
L 704.042038 -255.545416 
L 704.042038 -254.743724 
L 704.042038 -253.942033 
L 704.042038 -253.140341 
L 704.042038 -252.33865 
L 704.042039 -251.536958 
L 704.042043 -250.735267 
L 704.042058 -249.933575 
L 704.042108 -249.131884 
L 704.042258 -248.330192 
L 704.042661 -247.528501 
L 704.043628 -246.726809 
L 704.045695 -245.925118 
L 704.049615 -245.123426 
L 704.056182 -244.321735 
L 704.065832 -243.520043 
L 704.078128 -242.718352 
L 704.091445 -241.91666 
L 704.103229 -241.114969 
L 704.110947 -240.313277 
L 704.113355 -239.511586 
L 704.111321 -238.709894 
L 704.107584 -237.908203 
L 704.105455 -237.106511 
L 704.107238 -236.30482 
L 704.113381 -235.503128 
L 704.122955 -234.701437 
L 704.135121 -233.899745 
L 704.150478 -233.098054 
L 704.171125 -232.296362 
L 704.199142 -231.494671 
L 704.234428 -230.692979 
L 704.273508 -229.891288 
L 704.310305 -229.089596 
L 704.338414 -228.287905 
L 704.353293 -227.486213 
L 704.353097 -226.684522 
L 704.338137 -225.88283 
L 704.310047 -225.081139 
L 704.271537 -224.279447 
z
" style="stroke: #353535; stroke-width: 1.2"/>
    </defs>
    <g clip-path="url(#p6fd6b43df7)">
     <use xlink:href="#m235bc83e0d" x="0" y="352.429386" style="fill: #de7959; stroke: #353535; stroke-width: 1.2"/>
    </g>
   </g>
   <g id="FillBetweenPolyCollection_10">
    <defs>
     <path id="m8c7f069971" d="M 778.108164 -133.971691 
L 778.017999 -133.971691 
L 778.020775 -135.686906 
L 778.02812 -137.40212 
L 778.037638 -139.117335 
L 778.046776 -140.83255 
L 778.053879 -142.547764 
L 778.058508 -144.262979 
L 778.06108 -145.978194 
L 778.06231 -147.693408 
L 778.06282 -149.408623 
L 778.063003 -151.123838 
L 778.063061 -152.839052 
L 778.063077 -154.554267 
L 778.06308 -156.269482 
L 778.06308 -157.984696 
L 778.063078 -159.699911 
L 778.063065 -161.415126 
L 778.063019 -163.13034 
L 778.062869 -164.845555 
L 778.06244 -166.56077 
L 778.061378 -168.275984 
L 778.059091 -169.991199 
L 778.054835 -171.706414 
L 778.048016 -173.421628 
L 778.038665 -175.136843 
L 778.02773 -176.852058 
L 778.016762 -178.567272 
L 778.006949 -180.282487 
L 777.998158 -181.997702 
L 777.988927 -183.712916 
L 777.977633 -185.428131 
L 777.963766 -187.143346 
L 777.947898 -188.85856 
L 777.930249 -190.573775 
L 777.909537 -192.28899 
L 777.883977 -194.004204 
L 777.854128 -195.719419 
L 777.824863 -197.434634 
L 777.803932 -199.149848 
L 777.797614 -200.865063 
L 777.806879 -202.580278 
L 777.827191 -204.295492 
L 777.851749 -206.010707 
L 777.874995 -207.725922 
L 777.893516 -209.441136 
L 777.904292 -211.156351 
L 777.902698 -212.871566 
L 777.882502 -214.58678 
L 777.83796 -216.301995 
L 777.76637 -218.01721 
L 777.669781 -219.732424 
L 777.555953 -221.447639 
L 777.439073 -223.162854 
L 777.339245 -224.878068 
L 777.278597 -226.593283 
L 777.273582 -228.308498 
L 777.327081 -230.023712 
L 777.426005 -231.738927 
L 777.547012 -233.454142 
L 777.666768 -235.169356 
L 777.769953 -236.884571 
L 777.850832 -238.599786 
L 777.909805 -240.315 
L 777.949362 -242.030215 
L 777.972371 -243.74543 
L 777.982343 -245.460644 
L 777.983777 -247.175859 
L 777.981484 -248.891074 
L 777.979319 -250.606288 
L 777.979275 -252.321503 
L 777.981479 -254.036718 
L 777.984923 -255.751932 
L 777.988377 -257.467147 
L 777.990774 -259.182362 
L 777.99068 -260.897576 
L 777.985271 -262.612791 
L 777.970078 -264.328006 
L 777.94053 -266.04322 
L 777.894972 -267.758435 
L 777.837278 -269.47365 
L 777.777065 -271.188865 
L 777.726836 -272.904079 
L 777.697069 -274.619294 
L 777.690802 -276.334509 
L 777.698129 -278.049723 
L 777.688633 -279.764938 
L 777.597119 -281.480153 
L 777.29843 -283.195367 
L 776.576122 -284.910582 
L 775.110484 -286.625797 
L 772.532855 -288.341011 
L 768.586241 -290.056226 
L 763.368882 -291.771441 
L 757.534315 -293.486655 
L 752.263974 -295.20187 
L 748.913677 -296.917085 
L 748.454664 -298.632299 
L 751.020736 -300.347514 
L 755.848328 -302.062729 
L 761.644852 -303.777943 
L 794.481311 -303.777943 
L 794.481311 -303.777943 
L 800.277834 -302.062729 
L 805.105427 -300.347514 
L 807.671499 -298.632299 
L 807.212486 -296.917085 
L 803.862189 -295.20187 
L 798.591847 -293.486655 
L 792.757281 -291.771441 
L 787.539922 -290.056226 
L 783.593308 -288.341011 
L 781.015678 -286.625797 
L 779.550041 -284.910582 
L 778.827732 -283.195367 
L 778.529044 -281.480153 
L 778.43753 -279.764938 
L 778.428033 -278.049723 
L 778.435361 -276.334509 
L 778.429093 -274.619294 
L 778.399327 -272.904079 
L 778.349097 -271.188865 
L 778.288885 -269.47365 
L 778.231191 -267.758435 
L 778.185633 -266.04322 
L 778.156085 -264.328006 
L 778.140891 -262.612791 
L 778.135483 -260.897576 
L 778.135388 -259.182362 
L 778.137785 -257.467147 
L 778.141239 -255.751932 
L 778.144684 -254.036718 
L 778.146888 -252.321503 
L 778.146844 -250.606288 
L 778.144678 -248.891074 
L 778.142386 -247.175859 
L 778.143819 -245.460644 
L 778.153791 -243.74543 
L 778.176801 -242.030215 
L 778.216358 -240.315 
L 778.275331 -238.599786 
L 778.356209 -236.884571 
L 778.459395 -235.169356 
L 778.579151 -233.454142 
L 778.700157 -231.738927 
L 778.799082 -230.023712 
L 778.85258 -228.308498 
L 778.847565 -226.593283 
L 778.786917 -224.878068 
L 778.68709 -223.162854 
L 778.57021 -221.447639 
L 778.456382 -219.732424 
L 778.359792 -218.01721 
L 778.288203 -216.301995 
L 778.243661 -214.58678 
L 778.223465 -212.871566 
L 778.22187 -211.156351 
L 778.232646 -209.441136 
L 778.251168 -207.725922 
L 778.274414 -206.010707 
L 778.298971 -204.295492 
L 778.319284 -202.580278 
L 778.328549 -200.865063 
L 778.322231 -199.149848 
L 778.3013 -197.434634 
L 778.272034 -195.719419 
L 778.242185 -194.004204 
L 778.216626 -192.28899 
L 778.195914 -190.573775 
L 778.178264 -188.85856 
L 778.162396 -187.143346 
L 778.148529 -185.428131 
L 778.137236 -183.712916 
L 778.128005 -181.997702 
L 778.119213 -180.282487 
L 778.109401 -178.567272 
L 778.098433 -176.852058 
L 778.087498 -175.136843 
L 778.078147 -173.421628 
L 778.071328 -171.706414 
L 778.067072 -169.991199 
L 778.064785 -168.275984 
L 778.063722 -166.56077 
L 778.063294 -164.845555 
L 778.063143 -163.13034 
L 778.063097 -161.415126 
L 778.063085 -159.699911 
L 778.063082 -157.984696 
L 778.063082 -156.269482 
L 778.063086 -154.554267 
L 778.063102 -152.839052 
L 778.06316 -151.123838 
L 778.063343 -149.408623 
L 778.063853 -147.693408 
L 778.065083 -145.978194 
L 778.067655 -144.262979 
L 778.072283 -142.547764 
L 778.079387 -140.83255 
L 778.088524 -139.117335 
L 778.098043 -137.40212 
L 778.105388 -135.686906 
L 778.108164 -133.971691 
z
" style="stroke: #353535; stroke-width: 1.2"/>
    </defs>
    <g clip-path="url(#p6fd6b43df7)">
     <use xlink:href="#m8c7f069971" x="0" y="352.429386" style="fill: #eaae75; stroke: #353535; stroke-width: 1.2"/>
    </g>
   </g>
   <g id="FillBetweenPolyCollection_11">
    <defs>
     <path id="m4b548033b0" d="M 852.226719 -152.385494 
L 851.941532 -152.385494 
L 851.936451 -153.900652 
L 851.936533 -155.41581 
L 851.937873 -156.930969 
L 851.937743 -158.446127 
L 851.936363 -159.961285 
L 851.936756 -161.476443 
L 851.942791 -162.991601 
L 851.956734 -164.506759 
L 851.977859 -166.021917 
L 852.002832 -167.537075 
L 852.027381 -169.052233 
L 852.048082 -170.567391 
L 852.063321 -172.082549 
L 852.073221 -173.597707 
L 852.078937 -175.112865 
L 852.081885 -176.628023 
L 852.083247 -178.143182 
L 852.083813 -179.65834 
L 852.084024 -181.173498 
L 852.084096 -182.688656 
L 852.084117 -184.203814 
L 852.084123 -185.718972 
L 852.084125 -187.23413 
L 852.084125 -188.749288 
L 852.084125 -190.264446 
L 852.084125 -191.779604 
L 852.084125 -193.294762 
L 852.084125 -194.80992 
L 852.084125 -196.325078 
L 852.084125 -197.840237 
L 852.084125 -199.355395 
L 852.084125 -200.870553 
L 852.084125 -202.385711 
L 852.084125 -203.900869 
L 852.084125 -205.416027 
L 852.084125 -206.931185 
L 852.084124 -208.446343 
L 852.08412 -209.961501 
L 852.084103 -211.476659 
L 852.084045 -212.991817 
L 852.08386 -214.506975 
L 852.083327 -216.022133 
L 852.081945 -217.537291 
L 852.078713 -219.05245 
L 852.07192 -220.567608 
L 852.059118 -222.082766 
L 852.037562 -223.597924 
L 852.005317 -225.113082 
L 851.962808 -226.62824 
L 851.914076 -228.143398 
L 851.866617 -229.658556 
L 851.829161 -231.173714 
L 851.807975 -232.688872 
L 851.803543 -234.20403 
L 851.809742 -235.719188 
L 851.816349 -237.234346 
L 851.813725 -238.749504 
L 851.797204 -240.264663 
L 851.768944 -241.779821 
L 851.736521 -243.294979 
L 851.709181 -244.810137 
L 851.693652 -246.325295 
L 851.6914 -247.840453 
L 851.698421 -249.355611 
L 851.70754 -250.870769 
L 851.712007 -252.385927 
L 851.708618 -253.901085 
L 851.698918 -255.416243 
L 851.688085 -256.931401 
L 851.682229 -258.446559 
L 851.685401 -259.961718 
L 851.697425 -261.476876 
L 851.713002 -262.992034 
L 851.722042 -264.507192 
L 851.711183 -266.02235 
L 851.666829 -267.537508 
L 851.579825 -269.052666 
L 851.450659 -270.567824 
L 851.292373 -272.082982 
L 851.12801 -273.59814 
L 850.981653 -275.113298 
L 850.865533 -276.628456 
L 850.767461 -278.143614 
L 850.640795 -279.658772 
L 850.395505 -281.173931 
L 849.88886 -282.689089 
L 848.921174 -284.204247 
L 847.252792 -285.719405 
L 844.662162 -287.234563 
L 841.050415 -288.749721 
L 836.564381 -290.264879 
L 831.675117 -291.780037 
L 827.142435 -293.295195 
L 823.837899 -294.810353 
L 822.475708 -296.325511 
L 823.365621 -297.840669 
L 826.305349 -299.355827 
L 830.662482 -300.870986 
L 835.599971 -302.386144 
L 868.56828 -302.386144 
L 868.56828 -302.386144 
L 873.505768 -300.870986 
L 877.862901 -299.355827 
L 880.80263 -297.840669 
L 881.692543 -296.325511 
L 880.330352 -294.810353 
L 877.025816 -293.295195 
L 872.493134 -291.780037 
L 867.603869 -290.264879 
L 863.117836 -288.749721 
L 859.506088 -287.234563 
L 856.915459 -285.719405 
L 855.247076 -284.204247 
L 854.279391 -282.689089 
L 853.772745 -281.173931 
L 853.527456 -279.658772 
L 853.400789 -278.143614 
L 853.302718 -276.628456 
L 853.186597 -275.113298 
L 853.04024 -273.59814 
L 852.875878 -272.082982 
L 852.717591 -270.567824 
L 852.588426 -269.052666 
L 852.501421 -267.537508 
L 852.457067 -266.02235 
L 852.446209 -264.507192 
L 852.455248 -262.992034 
L 852.470825 -261.476876 
L 852.482849 -259.961718 
L 852.486021 -258.446559 
L 852.480165 -256.931401 
L 852.469333 -255.416243 
L 852.459632 -253.901085 
L 852.456243 -252.385927 
L 852.46071 -250.870769 
L 852.46983 -249.355611 
L 852.47685 -247.840453 
L 852.474598 -246.325295 
L 852.45907 -244.810137 
L 852.431729 -243.294979 
L 852.399306 -241.779821 
L 852.371047 -240.264663 
L 852.354525 -238.749504 
L 852.351901 -237.234346 
L 852.358508 -235.719188 
L 852.364707 -234.20403 
L 852.360275 -232.688872 
L 852.339089 -231.173714 
L 852.301633 -229.658556 
L 852.254174 -228.143398 
L 852.205442 -226.62824 
L 852.162934 -225.113082 
L 852.130688 -223.597924 
L 852.109133 -222.082766 
L 852.09633 -220.567608 
L 852.089537 -219.05245 
L 852.086305 -217.537291 
L 852.084923 -216.022133 
L 852.08439 -214.506975 
L 852.084205 -212.991817 
L 852.084147 -211.476659 
L 852.084131 -209.961501 
L 852.084126 -208.446343 
L 852.084125 -206.931185 
L 852.084125 -205.416027 
L 852.084125 -203.900869 
L 852.084125 -202.385711 
L 852.084125 -200.870553 
L 852.084125 -199.355395 
L 852.084125 -197.840237 
L 852.084125 -196.325078 
L 852.084125 -194.80992 
L 852.084125 -193.294762 
L 852.084125 -191.779604 
L 852.084125 -190.264446 
L 852.084125 -188.749288 
L 852.084126 -187.23413 
L 852.084127 -185.718972 
L 852.084133 -184.203814 
L 852.084155 -182.688656 
L 852.084226 -181.173498 
L 852.084437 -179.65834 
L 852.085003 -178.143182 
L 852.086365 -176.628023 
L 852.089313 -175.112865 
L 852.09503 -173.597707 
L 852.10493 -172.082549 
L 852.120168 -170.567391 
L 852.140869 -169.052233 
L 852.165418 -167.537075 
L 852.190391 -166.021917 
L 852.211516 -164.506759 
L 852.22546 -162.991601 
L 852.231494 -161.476443 
L 852.231887 -159.961285 
L 852.230507 -158.446127 
L 852.230377 -156.930969 
L 852.231717 -155.41581 
L 852.231799 -153.900652 
L 852.226719 -152.385494 
z
" style="stroke: #353535; stroke-width: 1.2"/>
    </defs>
    <g clip-path="url(#p6fd6b43df7)">
     <use xlink:href="#m4b548033b0" x="0" y="352.429386" style="fill: #f0d999; stroke: #353535; stroke-width: 1.2"/>
    </g>
   </g>
   <g id="matplotlib.axis_1">
    <g id="xtick_1">
     <g id="line2d_1">
      <defs>
       <path id="m9f76250e07" d="M 0 0 
L 0 3.5 
" style="stroke: #000000; stroke-width: 0.8"/>
      </defs>
      <g>
       <use xlink:href="#m9f76250e07" x="111.873687" y="283.694535" style="stroke: #000000; stroke-width: 0.8"/>
      </g>
     </g>
     <g id="text_1">
      <text style="font-size: 9px; font-family: 'Liberation Sans', 'Arial', 'DejaVu Sans'" transform="translate(53.841422 335.935257) rotate(-35)">Prolif. preNeu (S)</text>
     </g>
    </g>
    <g id="xtick_2">
     <g id="line2d_2">
      <g>
       <use xlink:href="#m9f76250e07" x="185.894731" y="283.694535" style="stroke: #000000; stroke-width: 0.8"/>
      </g>
     </g>
     <g id="text_2">
      <text style="font-size: 9px; font-family: 'Liberation Sans', 'Arial', 'DejaVu Sans'" transform="translate(116.805065 343.677733) rotate(-35)">Prolif. preNeu (G2M)</text>
     </g>
    </g>
    <g id="xtick_3">
     <g id="line2d_3">
      <g>
       <use xlink:href="#m9f76250e07" x="259.915775" y="283.694535" style="stroke: #000000; stroke-width: 0.8"/>
      </g>
     </g>
     <g id="text_3">
      <text style="font-size: 9px; font-family: 'Liberation Sans', 'Arial', 'DejaVu Sans'" transform="translate(212.185836 328.673998) rotate(-35)">Immature Neu</text>
     </g>
    </g>
    <g id="xtick_4">
     <g id="line2d_4">
      <g>
       <use xlink:href="#m9f76250e07" x="333.936819" y="283.694535" style="stroke: #000000; stroke-width: 0.8"/>
      </g>
     </g>
     <g id="text_4">
      <text style="font-size: 9px; font-family: 'Liberation Sans', 'Arial', 'DejaVu Sans'" transform="translate(304.638953 315.767722) rotate(-35)">Act. Neu</text>
     </g>
    </g>
    <g id="xtick_5">
     <g id="line2d_5">
      <g>
       <use xlink:href="#m9f76250e07" x="407.957862" y="283.694535" style="stroke: #000000; stroke-width: 0.8"/>
      </g>
     </g>
     <g id="text_5">
      <text style="font-size: 9px; font-family: 'Liberation Sans', 'Arial', 'DejaVu Sans'" transform="translate(368.417012 322.939937) rotate(-35)">Mature Neu</text>
     </g>
    </g>
    <g id="xtick_6">
     <g id="line2d_6">
      <g>
       <use xlink:href="#m9f76250e07" x="481.978906" y="283.694535" style="stroke: #000000; stroke-width: 0.8"/>
      </g>
     </g>
     <g id="text_6">
      <text style="font-size: 9px; font-family: 'Liberation Sans', 'Arial', 'DejaVu Sans'" transform="translate(453.505824 315.190202) rotate(-35)">IFN Neu</text>
     </g>
    </g>
    <g id="xtick_7">
     <g id="line2d_7">
      <g>
       <use xlink:href="#m9f76250e07" x="555.99995" y="283.694535" style="stroke: #000000; stroke-width: 0.8"/>
      </g>
     </g>
     <g id="text_7">
      <text style="font-size: 9px; font-family: 'Liberation Sans', 'Arial', 'DejaVu Sans'" transform="translate(517.279276 322.365644) rotate(-35)">Inflam. Neu</text>
     </g>
    </g>
    <g id="xtick_8">
     <g id="line2d_8">
      <g>
       <use xlink:href="#m9f76250e07" x="630.020994" y="283.694535" style="stroke: #000000; stroke-width: 0.8"/>
      </g>
     </g>
     <g id="text_8">
      <text style="font-size: 9px; font-family: 'Liberation Sans', 'Arial', 'DejaVu Sans'" transform="translate(587.751215 324.850753) rotate(-35)">Mature_TAN</text>
     </g>
    </g>
    <g id="xtick_9">
     <g id="line2d_9">
      <g>
       <use xlink:href="#m9f76250e07" x="704.042038" y="283.694535" style="stroke: #000000; stroke-width: 0.8"/>
      </g>
     </g>
     <g id="text_9">
      <text style="font-size: 9px; font-family: 'Liberation Sans', 'Arial', 'DejaVu Sans'" transform="translate(667.091884 321.147799) rotate(-35)">Il1bhi_TAN</text>
     </g>
    </g>
    <g id="xtick_10">
     <g id="line2d_10">
      <g>
       <use xlink:href="#m9f76250e07" x="778.063081" y="283.694535" style="stroke: #000000; stroke-width: 0.8"/>
      </g>
     </g>
     <g id="text_10">
      <text style="font-size: 9px; font-family: 'Liberation Sans', 'Arial', 'DejaVu Sans'" transform="translate(738.250375 323.220143) rotate(-35)">Ccl3hi_TAN</text>
     </g>
    </g>
    <g id="xtick_11">
     <g id="line2d_11">
      <g>
       <use xlink:href="#m9f76250e07" x="852.084125" y="283.694535" style="stroke: #000000; stroke-width: 0.8"/>
      </g>
     </g>
     <g id="text_11">
      <text style="font-size: 9px; font-family: 'Liberation Sans', 'Arial', 'DejaVu Sans'" transform="translate(807.768515 326.373111) rotate(-35)">Cxcr2hi_TAN</text>
     </g>
    </g>
   </g>
   <g id="matplotlib.axis_2">
    <g id="ytick_1">
     <g id="line2d_12">
      <defs>
       <path id="me3cb5b2ca5" d="M 0 0 
L -3.5 0 
" style="stroke: #000000; stroke-width: 0.8"/>
      </defs>
      <g>
       <use xlink:href="#me3cb5b2ca5" x="42.293906" y="272.502007" style="stroke: #000000; stroke-width: 0.8"/>
      </g>
     </g>
     <g id="text_12">
      <text style="font-size: 10px; font-family: 'Liberation Sans', 'Arial', 'DejaVu Sans'; text-anchor: end" x="35.293906" y="276.080913" transform="rotate(-0 35.293906 276.080913)">0.0</text>
     </g>
    </g>
    <g id="ytick_2">
     <g id="line2d_13">
      <g>
       <use xlink:href="#me3cb5b2ca5" x="42.293906" y="227.731894" style="stroke: #000000; stroke-width: 0.8"/>
      </g>
     </g>
     <g id="text_13">
      <text style="font-size: 10px; font-family: 'Liberation Sans', 'Arial', 'DejaVu Sans'; text-anchor: end" x="35.293906" y="231.3108" transform="rotate(-0 35.293906 231.3108)">0.2</text>
     </g>
    </g>
    <g id="ytick_3">
     <g id="line2d_14">
      <g>
       <use xlink:href="#me3cb5b2ca5" x="42.293906" y="182.961781" style="stroke: #000000; stroke-width: 0.8"/>
      </g>
     </g>
     <g id="text_14">
      <text style="font-size: 10px; font-family: 'Liberation Sans', 'Arial', 'DejaVu Sans'; text-anchor: end" x="35.293906" y="186.540687" transform="rotate(-0 35.293906 186.540687)">0.4</text>
     </g>
    </g>
    <g id="ytick_4">
     <g id="line2d_15">
      <g>
       <use xlink:href="#me3cb5b2ca5" x="42.293906" y="138.191668" style="stroke: #000000; stroke-width: 0.8"/>
      </g>
     </g>
     <g id="text_15">
      <text style="font-size: 10px; font-family: 'Liberation Sans', 'Arial', 'DejaVu Sans'; text-anchor: end" x="35.293906" y="141.770575" transform="rotate(-0 35.293906 141.770575)">0.6</text>
     </g>
    </g>
    <g id="ytick_5">
     <g id="line2d_16">
      <g>
       <use xlink:href="#me3cb5b2ca5" x="42.293906" y="93.421555" style="stroke: #000000; stroke-width: 0.8"/>
      </g>
     </g>
     <g id="text_16">
      <text style="font-size: 10px; font-family: 'Liberation Sans', 'Arial', 'DejaVu Sans'; text-anchor: end" x="35.293906" y="97.000462" transform="rotate(-0 35.293906 97.000462)">0.8</text>
     </g>
    </g>
    <g id="ytick_6">
     <g id="line2d_17">
      <g>
       <use xlink:href="#me3cb5b2ca5" x="42.293906" y="48.651443" style="stroke: #000000; stroke-width: 0.8"/>
      </g>
     </g>
     <g id="text_17">
      <text style="font-size: 10px; font-family: 'Liberation Sans', 'Arial', 'DejaVu Sans'; text-anchor: end" x="35.293906" y="52.230349" transform="rotate(-0 35.293906 52.230349)">1.0</text>
     </g>
    </g>
    <g id="text_18">
     <text style="font-size: 11px; font-family: 'Liberation Sans', 'Arial', 'DejaVu Sans'; text-anchor: middle" x="15.207656" y="152.741955" transform="rotate(-90 15.207656 152.741955)">Diffusion pseudotime</text>
    </g>
   </g>
   <g id="line2d_18">
    <path d="M 111.873687 272.502007 
L 111.873687 199.003801 
" clip-path="url(#p6fd6b43df7)" style="fill: none; stroke: #353535; stroke-width: 1.8; stroke-linecap: square"/>
   </g>
   <g id="line2d_19">
    <path d="M 111.873687 247.580244 
L 111.873687 218.136625 
" clip-path="url(#p6fd6b43df7)" style="fill: none; stroke: #353535; stroke-width: 5.4; stroke-linecap: square"/>
   </g>
   <g id="line2d_20">
    <path d="M 111.873687 239.940928 
" clip-path="url(#p6fd6b43df7)" style="fill: none; stroke: #353535; stroke-width: 1.5; stroke-linecap: square"/>
    <defs>
     <path id="mf80b9a7ebd" d="M 2.25 0 
L -2.25 -0 
" style="stroke: #ffffff; stroke-width: 1.08"/>
    </defs>
    <g clip-path="url(#p6fd6b43df7)">
     <use xlink:href="#mf80b9a7ebd" x="111.873687" y="239.940928" style="fill: #ffffff; stroke: #ffffff; stroke-width: 1.08"/>
    </g>
   </g>
   <g id="line2d_21">
    <path d="M 185.894731 248.783602 
L 185.894731 60.882676 
" clip-path="url(#p6fd6b43df7)" style="fill: none; stroke: #353535; stroke-width: 1.8; stroke-linecap: square"/>
   </g>
   <g id="line2d_22">
    <path d="M 185.894731 202.321542 
L 185.894731 95.774582 
" clip-path="url(#p6fd6b43df7)" style="fill: none; stroke: #353535; stroke-width: 5.4; stroke-linecap: square"/>
   </g>
   <g id="line2d_23">
    <path d="M 185.894731 108.898011 
" clip-path="url(#p6fd6b43df7)" style="fill: none; stroke: #353535; stroke-width: 1.5; stroke-linecap: square"/>
    <g clip-path="url(#p6fd6b43df7)">
     <use xlink:href="#mf80b9a7ebd" x="185.894731" y="108.898011" style="fill: #ffffff; stroke: #ffffff; stroke-width: 1.08"/>
    </g>
   </g>
   <g id="line2d_24">
    <path d="M 259.915775 78.558184 
L 259.915775 66.951328 
" clip-path="url(#p6fd6b43df7)" style="fill: none; stroke: #353535; stroke-width: 1.8; stroke-linecap: square"/>
   </g>
   <g id="line2d_25">
    <path d="M 259.915775 73.852566 
L 259.915775 70.644608 
" clip-path="url(#p6fd6b43df7)" style="fill: none; stroke: #353535; stroke-width: 5.4; stroke-linecap: square"/>
   </g>
   <g id="line2d_26">
    <path d="M 259.915775 71.925818 
" clip-path="url(#p6fd6b43df7)" style="fill: none; stroke: #353535; stroke-width: 1.5; stroke-linecap: square"/>
    <g clip-path="url(#p6fd6b43df7)">
     <use xlink:href="#mf80b9a7ebd" x="259.915775" y="71.925818" style="fill: #ffffff; stroke: #ffffff; stroke-width: 1.08"/>
    </g>
   </g>
   <g id="line2d_27">
    <path d="M 333.936819 73.766827 
L 333.936819 65.56728 
" clip-path="url(#p6fd6b43df7)" style="fill: none; stroke: #353535; stroke-width: 1.8; stroke-linecap: square"/>
   </g>
   <g id="line2d_28">
    <path d="M 333.936819 71.06323 
L 333.936819 68.813532 
" clip-path="url(#p6fd6b43df7)" style="fill: none; stroke: #353535; stroke-width: 5.4; stroke-linecap: square"/>
   </g>
   <g id="line2d_29">
    <path d="M 333.936819 70.022192 
" clip-path="url(#p6fd6b43df7)" style="fill: none; stroke: #353535; stroke-width: 1.5; stroke-linecap: square"/>
    <g clip-path="url(#p6fd6b43df7)">
     <use xlink:href="#mf80b9a7ebd" x="333.936819" y="70.022192" style="fill: #ffffff; stroke: #ffffff; stroke-width: 1.08"/>
    </g>
   </g>
   <g id="line2d_30">
    <path d="M 407.957862 69.146841 
L 407.957862 51.906033 
" clip-path="url(#p6fd6b43df7)" style="fill: none; stroke: #353535; stroke-width: 1.8; stroke-linecap: square"/>
   </g>
   <g id="line2d_31">
    <path d="M 407.957862 62.214241 
L 407.957862 57.567571 
" clip-path="url(#p6fd6b43df7)" style="fill: none; stroke: #353535; stroke-width: 5.4; stroke-linecap: square"/>
   </g>
   <g id="line2d_32">
    <path d="M 407.957862 59.465499 
" clip-path="url(#p6fd6b43df7)" style="fill: none; stroke: #353535; stroke-width: 1.5; stroke-linecap: square"/>
    <g clip-path="url(#p6fd6b43df7)">
     <use xlink:href="#mf80b9a7ebd" x="407.957862" y="59.465499" style="fill: #ffffff; stroke: #ffffff; stroke-width: 1.08"/>
    </g>
   </g>
   <g id="line2d_33">
    <path d="M 481.978906 59.903601 
L 481.978906 51.484663 
" clip-path="url(#p6fd6b43df7)" style="fill: none; stroke: #353535; stroke-width: 1.8; stroke-linecap: square"/>
   </g>
   <g id="line2d_34">
    <path d="M 481.978906 56.808394 
L 481.978906 54.54502 
" clip-path="url(#p6fd6b43df7)" style="fill: none; stroke: #353535; stroke-width: 5.4; stroke-linecap: square"/>
   </g>
   <g id="line2d_35">
    <path d="M 481.978906 55.555256 
" clip-path="url(#p6fd6b43df7)" style="fill: none; stroke: #353535; stroke-width: 1.5; stroke-linecap: square"/>
    <g clip-path="url(#p6fd6b43df7)">
     <use xlink:href="#mf80b9a7ebd" x="481.978906" y="55.555256" style="fill: #ffffff; stroke: #ffffff; stroke-width: 1.08"/>
    </g>
   </g>
   <g id="line2d_36">
    <path d="M 555.99995 62.847605 
L 555.99995 51.450653 
" clip-path="url(#p6fd6b43df7)" style="fill: none; stroke: #353535; stroke-width: 1.8; stroke-linecap: square"/>
   </g>
   <g id="line2d_37">
    <path d="M 555.99995 58.569868 
L 555.99995 55.682184 
" clip-path="url(#p6fd6b43df7)" style="fill: none; stroke: #353535; stroke-width: 5.4; stroke-linecap: square"/>
   </g>
   <g id="line2d_38">
    <path d="M 555.99995 56.996143 
" clip-path="url(#p6fd6b43df7)" style="fill: none; stroke: #353535; stroke-width: 1.5; stroke-linecap: square"/>
    <g clip-path="url(#p6fd6b43df7)">
     <use xlink:href="#mf80b9a7ebd" x="555.99995" y="56.996143" style="fill: #ffffff; stroke: #ffffff; stroke-width: 1.08"/>
    </g>
   </g>
   <g id="line2d_39">
    <path d="M 630.020994 63.675616 
L 630.020994 51.709978 
" clip-path="url(#p6fd6b43df7)" style="fill: none; stroke: #353535; stroke-width: 1.8; stroke-linecap: square"/>
   </g>
   <g id="line2d_40">
    <path d="M 630.020994 58.673657 
L 630.020994 55.322946 
" clip-path="url(#p6fd6b43df7)" style="fill: none; stroke: #353535; stroke-width: 5.4; stroke-linecap: square"/>
   </g>
   <g id="line2d_41">
    <path d="M 630.020994 56.766051 
" clip-path="url(#p6fd6b43df7)" style="fill: none; stroke: #353535; stroke-width: 1.5; stroke-linecap: square"/>
    <g clip-path="url(#p6fd6b43df7)">
     <use xlink:href="#mf80b9a7ebd" x="630.020994" y="56.766051" style="fill: #ffffff; stroke: #ffffff; stroke-width: 1.08"/>
    </g>
   </g>
   <g id="line2d_42">
    <path d="M 704.042038 58.548934 
L 704.042038 49.294273 
" clip-path="url(#p6fd6b43df7)" style="fill: none; stroke: #353535; stroke-width: 1.8; stroke-linecap: square"/>
   </g>
   <g id="line2d_43">
    <path d="M 704.042038 55.044357 
L 704.042038 52.65946 
" clip-path="url(#p6fd6b43df7)" style="fill: none; stroke: #353535; stroke-width: 5.4; stroke-linecap: square"/>
   </g>
   <g id="line2d_44">
    <path d="M 704.042038 53.820367 
" clip-path="url(#p6fd6b43df7)" style="fill: none; stroke: #353535; stroke-width: 1.5; stroke-linecap: square"/>
    <g clip-path="url(#p6fd6b43df7)">
     <use xlink:href="#mf80b9a7ebd" x="704.042038" y="53.820367" style="fill: #ffffff; stroke: #ffffff; stroke-width: 1.08"/>
    </g>
   </g>
   <g id="line2d_45">
    <path d="M 778.063081 60.340396 
L 778.063081 48.907286 
" clip-path="url(#p6fd6b43df7)" style="fill: none; stroke: #353535; stroke-width: 1.8; stroke-linecap: square"/>
   </g>
   <g id="line2d_46">
    <path d="M 778.063081 56.030491 
L 778.063081 53.138964 
" clip-path="url(#p6fd6b43df7)" style="fill: none; stroke: #353535; stroke-width: 5.4; stroke-linecap: square"/>
   </g>
   <g id="line2d_47">
    <path d="M 778.063081 54.730061 
" clip-path="url(#p6fd6b43df7)" style="fill: none; stroke: #353535; stroke-width: 1.5; stroke-linecap: square"/>
    <g clip-path="url(#p6fd6b43df7)">
     <use xlink:href="#mf80b9a7ebd" x="778.063081" y="54.730061" style="fill: #ffffff; stroke: #ffffff; stroke-width: 1.08"/>
    </g>
   </g>
   <g id="line2d_48">
    <path d="M 852.084125 62.473307 
L 852.084125 50.043242 
" clip-path="url(#p6fd6b43df7)" style="fill: none; stroke: #353535; stroke-width: 1.8; stroke-linecap: square"/>
   </g>
   <g id="line2d_49">
    <path d="M 852.084125 57.836896 
L 852.084125 54.413749 
" clip-path="url(#p6fd6b43df7)" style="fill: none; stroke: #353535; stroke-width: 5.4; stroke-linecap: square"/>
   </g>
   <g id="line2d_50">
    <path d="M 852.084125 56.395689 
" clip-path="url(#p6fd6b43df7)" style="fill: none; stroke: #353535; stroke-width: 1.5; stroke-linecap: square"/>
    <g clip-path="url(#p6fd6b43df7)">
     <use xlink:href="#mf80b9a7ebd" x="852.084125" y="56.395689" style="fill: #ffffff; stroke: #ffffff; stroke-width: 1.08"/>
    </g>
   </g>
   <g id="line2d_51">
    <path d="M 593.010472 283.694535 
L 593.010472 21.789375 
" clip-path="url(#p6fd6b43df7)" style="fill: none; stroke-dasharray: 7.4,3.2; stroke-dashoffset: 0; stroke: #000000; stroke-opacity: 0.7; stroke-width: 2"/>
   </g>
   <g id="patch_3">
    <path d="M 42.293906 283.694535 
L 42.293906 21.789375 
" style="fill: none; stroke: #000000; stroke-width: 0.8; stroke-linejoin: miter; stroke-linecap: square"/>
   </g>
   <g id="patch_4">
    <path d="M 42.293906 283.694535 
L 921.663906 283.694535 
" style="fill: none; stroke: #000000; stroke-width: 0.8; stroke-linejoin: miter; stroke-linecap: square"/>
   </g>
   <g id="text_19">
    <text style="font-weight: 700; font-size: 10px; font-family: 'Liberation Sans', 'Arial', 'DejaVu Sans'; text-anchor: middle; fill: #2166ac" x="333.936819" y="32.981903" transform="rotate(-0 333.936819 32.981903)">Spleen neutrophils</text>
   </g>
   <g id="text_20">
    <text style="font-weight: 700; font-size: 10px; font-family: 'Liberation Sans', 'Arial', 'DejaVu Sans'; text-anchor: middle; fill: #d73027" x="778.063081" y="32.981903" transform="rotate(-0 778.063081 32.981903)">Tumor neutrophils</text>
   </g>
   <g id="text_21">
    <text style="font-weight: 700; font-size: 12px; font-family: 'Liberation Sans', 'Arial', 'DejaVu Sans'; text-anchor: middle" x="481.978906" y="15.789375" transform="rotate(-0 481.978906 15.789375)">Pseudotime distribution by cell type</text>
   </g>
   <g id="PathCollection_1">
    <defs>
     <path id="mdb846ef479" d="M 0 2.738613 
C 0.726289 2.738613 1.422928 2.450055 1.936492 1.936492 
C 2.450055 1.422928 2.738613 0.726289 2.738613 0 
C 2.738613 -0.726289 2.450055 -1.422928 1.936492 -1.936492 
C 1.422928 -2.450055 0.726289 -2.738613 0 -2.738613 
C -0.726289 -2.738613 -1.422928 -2.450055 -1.936492 -1.936492 
C -2.450055 -1.422928 -2.738613 -0.726289 -2.738613 0 
C -2.738613 0.726289 -2.450055 1.422928 -1.936492 1.936492 
C -1.422928 2.450055 -0.726289 2.738613 0 2.738613 
z
" style="stroke: #000000"/>
    </defs>
    <g clip-path="url(#p6fd6b43df7)">
     <use xlink:href="#mdb846ef479" x="111.873687" y="239.940928" style="fill: #ffffff; stroke: #000000"/>
    </g>
   </g>
   <g id="PathCollection_2">
    <g clip-path="url(#p6fd6b43df7)">
     <use xlink:href="#mdb846ef479" x="185.894731" y="108.898011" style="fill: #ffffff; stroke: #000000"/>
    </g>
   </g>
   <g id="PathCollection_3">
    <g clip-path="url(#p6fd6b43df7)">
     <use xlink:href="#mdb846ef479" x="259.915775" y="71.925811" style="fill: #ffffff; stroke: #000000"/>
    </g>
   </g>
   <g id="PathCollection_4">
    <g clip-path="url(#p6fd6b43df7)">
     <use xlink:href="#mdb846ef479" x="333.936819" y="70.022192" style="fill: #ffffff; stroke: #000000"/>
    </g>
   </g>
   <g id="PathCollection_5">
    <g clip-path="url(#p6fd6b43df7)">
     <use xlink:href="#mdb846ef479" x="407.957862" y="59.465499" style="fill: #ffffff; stroke: #000000"/>
    </g>
   </g>
   <g id="PathCollection_6">
    <g clip-path="url(#p6fd6b43df7)">
     <use xlink:href="#mdb846ef479" x="481.978906" y="55.555256" style="fill: #ffffff; stroke: #000000"/>
    </g>
   </g>
   <g id="PathCollection_7">
    <g clip-path="url(#p6fd6b43df7)">
     <use xlink:href="#mdb846ef479" x="555.99995" y="56.996143" style="fill: #ffffff; stroke: #000000"/>
    </g>
   </g>
   <g id="PathCollection_8">
    <g clip-path="url(#p6fd6b43df7)">
     <use xlink:href="#mdb846ef479" x="630.020994" y="56.766051" style="fill: #ffffff; stroke: #000000"/>
    </g>
   </g>
   <g id="PathCollection_9">
    <g clip-path="url(#p6fd6b43df7)">
     <use xlink:href="#mdb846ef479" x="704.042038" y="53.820367" style="fill: #ffffff; stroke: #000000"/>
    </g>
   </g>
   <g id="PathCollection_10">
    <g clip-path="url(#p6fd6b43df7)">
     <use xlink:href="#mdb846ef479" x="778.063081" y="54.730061" style="fill: #ffffff; stroke: #000000"/>
    </g>
   </g>
   <g id="PathCollection_11">
    <g clip-path="url(#p6fd6b43df7)">
     <use xlink:href="#mdb846ef479" x="852.084125" y="56.395689" style="fill: #ffffff; stroke: #000000"/>
    </g>
   </g>
  </g>
 </g>
 <defs>
  <clipPath id="p6fd6b43df7">
   <rect x="42.293906" y="21.789375" width="879.37" height="261.90516"/>
  </clipPath>
 </defs>
</svg>
